<svg width="26" height="26" viewBox="0 0 26 26" fill="none" xmlns="http://www.w3.org/2000/svg">
<path d="M11.9167 2.16667C17.2987 2.16667 21.6667 6.53467 21.6667 11.9167C21.6667 17.2987 17.2987 21.6667 11.9167 21.6667C6.53475 21.6667 2.16675 17.2987 2.16675 11.9167C2.16675 6.53467 6.53475 2.16667 11.9167 2.16667ZM11.9167 19.5C16.1065 19.5 19.5001 16.1065 19.5001 11.9167C19.5001 7.72688 16.1065 4.33334 11.9167 4.33334C7.72696 4.33334 4.33341 7.72688 4.33341 11.9167C4.33341 16.1065 7.72696 19.5 11.9167 19.5ZM21.1092 19.577L24.1733 22.6411L22.6412 24.1732L19.5771 21.1091L21.1092 19.577Z" fill="#ADB4C0"/>
</svg>
