<svg width="28" height="28" viewBox="0 0 28 28" fill="none" xmlns="http://www.w3.org/2000/svg">
<path d="M2.80005 4.19999C2.80005 3.82868 2.94755 3.47259 3.2101 3.21004C3.47265 2.94749 3.82875 2.79999 4.20005 2.79999H7.21425C7.54564 2.80014 7.86623 2.91784 8.11899 3.13215C8.37175 3.34646 8.5403 3.64349 8.59465 3.97039L9.63065 10.1794C9.68015 10.4751 9.63341 10.7789 9.49732 11.046C9.36122 11.3132 9.14296 11.5296 8.87465 11.6634L6.70745 12.7456C7.4846 14.6715 8.64202 16.421 10.1105 17.8895C11.5791 19.358 13.3285 20.5154 15.2544 21.2926L16.338 19.1254C16.4718 18.8573 16.688 18.6393 16.9548 18.5032C17.2217 18.3671 17.5252 18.3202 17.8206 18.3694L24.0296 19.4054C24.3566 19.4597 24.6536 19.6283 24.8679 19.881C25.0822 20.1338 25.1999 20.4544 25.2 20.7858V23.8C25.2 24.1713 25.0525 24.5274 24.79 24.7899C24.5274 25.0525 24.1714 25.2 23.8 25.2H21C10.948 25.2 2.80005 17.052 2.80005 6.99999V4.19999Z" fill="#27292E"/>
</svg>
