<svg width="12" height="12" viewBox="0 0 12 12" fill="none" xmlns="http://www.w3.org/2000/svg">
<path d="M10.3816 6.2543C10.5785 5.99414 10.6875 5.67539 10.6875 5.34375C10.6875 4.81758 10.3934 4.31953 9.91992 4.0418C9.79804 3.97031 9.65927 3.93268 9.51797 3.93281H6.70781L6.77813 2.49258C6.79453 2.14453 6.67148 1.81406 6.43242 1.56211C6.3151 1.43793 6.17356 1.33912 6.01654 1.2718C5.85953 1.20448 5.69037 1.17007 5.51953 1.1707C4.91016 1.1707 4.37109 1.58086 4.20938 2.16797L3.20273 5.8125H1.6875C1.48008 5.8125 1.3125 5.98008 1.3125 6.1875V10.4531C1.3125 10.6605 1.48008 10.8281 1.6875 10.8281H8.73398C8.8418 10.8281 8.94727 10.807 9.04453 10.7648C9.60234 10.527 9.96211 9.98203 9.96211 9.37735C9.96211 9.22969 9.94102 9.08438 9.89883 8.94375C10.0957 8.6836 10.2047 8.36485 10.2047 8.03321C10.2047 7.88555 10.1836 7.74024 10.1414 7.59961C10.3383 7.33946 10.4473 7.02071 10.4473 6.68906C10.4449 6.54141 10.4238 6.39492 10.3816 6.2543ZM2.15625 9.98438V6.65625H3.10547V9.98438H2.15625ZM9.61406 5.84766L9.35742 6.07031L9.52031 6.36797C9.57398 6.46602 9.6018 6.57612 9.60117 6.68789C9.60117 6.88125 9.5168 7.06524 9.37148 7.1918L9.11484 7.41446L9.27773 7.71211C9.3314 7.81016 9.35923 7.92026 9.35859 8.03203C9.35859 8.22539 9.27422 8.40938 9.12891 8.53594L8.87227 8.7586L9.03516 9.05625C9.08882 9.1543 9.11665 9.2644 9.11602 9.37617C9.11602 9.63867 8.96133 9.87539 8.72227 9.98321H3.85547V6.61875L5.02148 2.39414C5.05155 2.28586 5.11609 2.19033 5.20533 2.12203C5.29457 2.05373 5.40364 2.01637 5.51602 2.01563C5.60508 2.01563 5.69297 2.04141 5.76328 2.09414C5.8793 2.18086 5.94141 2.31211 5.93437 2.45156L5.82187 4.77656H9.50625C9.71484 4.9043 9.84375 5.11992 9.84375 5.34375C9.84375 5.53711 9.75938 5.71992 9.61406 5.84766Z" fill="#6D2B7D"/>
</svg>
