<svg width="20" height="19" viewBox="0 0 20 19" fill="none" xmlns="http://www.w3.org/2000/svg">
<path d="M5.96384 6.98531H5.97387M9.97495 6.98531H9.98498M13.9861 6.98531H13.9961M6.96662 13.0206H2.95551C2.42361 13.0206 1.91349 12.8086 1.53737 12.4314C1.16126 12.0541 0.949962 11.5424 0.949962 11.0088V2.96179C0.949962 2.42824 1.16126 1.91654 1.53737 1.53926C1.91349 1.16198 2.42361 0.950026 2.95551 0.950026H16.9944C17.5263 0.950026 18.0364 1.16198 18.4125 1.53926C18.7886 1.91654 18.9999 2.42824 18.9999 2.96179V11.0088C18.9999 11.5424 18.7886 12.0541 18.4125 12.4314C18.0364 12.8086 17.5263 13.0206 16.9944 13.0206H11.9805L6.96662 18.05V13.0206Z" stroke="#BBBBBB" stroke-width="1.81159" stroke-linecap="round" stroke-linejoin="round"/>
</svg>
