<svg width="22" height="20" viewBox="0 0 22 20" fill="none" xmlns="http://www.w3.org/2000/svg">
<path d="M14.7027 5.3258H9.37694C8.90754 5.3258 8.52706 5.70623 8.52706 6.17567C8.52706 6.64507 8.9075 7.02555 9.37694 7.02555H14.7027C15.1724 7.02555 15.5526 6.64511 15.5526 6.17567C15.5526 5.70623 15.1721 5.3258 14.7027 5.3258Z" fill="#77838F"/>
<path d="M16.7424 9.43344H9.37694C8.90754 9.43344 8.52706 9.81387 8.52706 10.2833C8.52706 10.7527 8.9075 11.1332 9.37694 11.1332H16.7424C17.2118 11.1332 17.5922 10.7527 17.5922 10.2833C17.5922 9.81387 17.2118 9.43344 16.7424 9.43344Z" fill="#77838F"/>
<path fill-rule="evenodd" clip-rule="evenodd" d="M20.5949 0H5.55239C5.08299 0 4.70252 0.380437 4.70252 0.849876V8.86687H3.20113C1.43596 8.86687 0 10.3031 0 12.068V16.7989C0 18.564 1.43596 20 3.20113 20C3.34559 20 3.48783 19.9904 3.62693 19.9717H17.6487C19.7417 19.9717 21.4448 18.2688 21.4448 16.1757V0.849876C21.4448 0.380437 21.0643 0 20.5949 0ZM4.70285 16.7989C4.70285 17.5272 4.18131 18.1363 3.4921 18.2719H3.20147V18.3003C2.37342 18.3003 1.70004 17.6266 1.70004 16.7988V12.068C1.70004 11.2402 2.37371 10.5666 3.20147 10.5666H4.7029V16.7989H4.70285ZM17.6491 18.2719C18.7856 18.2719 19.7454 17.3119 19.7454 16.1756V1.69971H6.40258V16.7989C6.40258 17.3297 6.27283 17.8309 6.04309 18.2719H17.6491Z" fill="#77838F"/>
<path d="M14.7027 13.2864H9.37694C8.90754 13.2864 8.52706 13.6669 8.52706 14.1363C8.52706 14.6057 8.9075 14.9862 9.37694 14.9862H14.7027C15.1724 14.9862 15.5526 14.6057 15.5526 14.1363C15.5526 13.6669 15.1721 13.2864 14.7027 13.2864Z" fill="#77838F"/>
</svg>
