<svg width="12" height="12" viewBox="0 0 12 12" fill="none" xmlns="http://www.w3.org/2000/svg">
<path d="M6.71484 4.93359C6.44414 4.93359 6.23438 5.14336 6.23438 5.40234C6.23438 5.66133 6.44414 5.87109 6.71484 5.87109C6.96211 5.87109 7.17188 5.66133 7.17188 5.40234C7.17188 5.14336 6.96211 4.93359 6.71484 4.93359ZM3.43359 4.93359C3.16289 4.93359 2.95312 5.14336 2.95312 5.40234C2.95312 5.66133 3.16289 5.87109 3.43359 5.87109C3.68086 5.87109 3.89062 5.66133 3.89062 5.40234C3.89062 5.14336 3.68086 4.93359 3.43359 4.93359Z" fill="black"/>
<path d="M10.4764 4.04297C9.91273 3.26954 9.12523 2.75274 8.26156 2.51954V2.52071C8.06117 2.29805 7.835 2.09297 7.58187 1.91016C5.66352 0.51563 2.97055 0.941021 1.57016 2.85938C0.44164 4.41797 0.489687 6.51446 1.64047 8.00391L1.64984 9.55782C1.64984 9.59532 1.6557 9.63282 1.66742 9.66797C1.72953 9.86602 1.94047 9.97501 2.13734 9.9129L3.62094 9.44532C4.01352 9.58477 4.41898 9.66446 4.82211 9.68672L4.81625 9.69141C5.86039 10.452 7.22914 10.6805 8.48422 10.2656L9.97367 10.7508C10.0112 10.7625 10.0498 10.7695 10.0897 10.7695C10.2971 10.7695 10.4647 10.602 10.4647 10.3945V8.82422C11.4971 7.42266 11.5241 5.48555 10.4764 4.04297ZM3.785 8.61329L3.64437 8.55469L2.48422 8.91797L2.4725 7.69922L2.37875 7.59376C1.38734 6.38438 1.32172 4.6418 2.24984 3.36329C3.37953 1.81407 5.54516 1.47188 7.08969 2.58985C8.63891 3.71602 8.98227 5.87813 7.86312 7.41797C6.92445 8.70586 5.24398 9.18165 3.785 8.61329ZM9.70297 8.41407L9.60922 8.53126L9.62094 9.75001L8.4725 9.36329L8.33187 9.42188C7.67562 9.66563 6.97602 9.68555 6.32797 9.50391L6.32562 9.50274C7.19164 9.23672 7.9768 8.69766 8.54281 7.92188C9.43812 6.6879 9.58344 5.13751 9.06312 3.81563L9.07016 3.82032C9.33969 4.01368 9.58695 4.25508 9.79672 4.54688C10.6475 5.71407 10.5995 7.30313 9.70297 8.41407Z" fill="black"/>
<path d="M5.07422 4.93359C4.80352 4.93359 4.59375 5.14336 4.59375 5.40234C4.59375 5.66133 4.80352 5.87109 5.07422 5.87109C5.32148 5.87109 5.53125 5.66133 5.53125 5.40234C5.53125 5.14336 5.32148 4.93359 5.07422 4.93359Z" fill="black"/>
</svg>
