<svg width="28" height="29" viewBox="0 0 28 29" fill="none" xmlns="http://www.w3.org/2000/svg">
<g clip-path="url(#clip0_12_60)">
<path d="M14 0C14.4641 0 14.9093 0.189496 15.2374 0.526801C15.5656 0.864106 15.75 1.32159 15.75 1.79861V12.5903H26.25C26.7141 12.5903 27.1593 12.7798 27.4874 13.1171C27.8156 13.4544 28 13.9119 28 14.3889C28 14.8659 27.8156 15.3234 27.4874 15.6607C27.1593 15.998 26.7141 16.1875 26.25 16.1875H15.75V26.9792C15.75 27.4562 15.5656 27.9137 15.2374 28.251C14.9093 28.5883 14.4641 28.7778 14 28.7778C13.5359 28.7778 13.0908 28.5883 12.7626 28.251C12.4344 27.9137 12.25 27.4562 12.25 26.9792V16.1875H1.75C1.28587 16.1875 0.840752 15.998 0.512563 15.6607C0.184375 15.3234 0 14.8659 0 14.3889C0 13.9119 0.184375 13.4544 0.512563 13.1171C0.840752 12.7798 1.28587 12.5903 1.75 12.5903H12.25V1.79861C12.25 1.32159 12.4344 0.864106 12.7626 0.526801C13.0908 0.189496 13.5359 0 14 0V0Z" fill="white"/>
</g>
<defs>
<clipPath id="clip0_12_60">
<rect width="27.7836" height="28.5553" fill="white" transform="scale(1.00779)"/>
</clipPath>
</defs>
</svg>
