<svg width="47" height="47" viewBox="0 0 47 47" fill="none" xmlns="http://www.w3.org/2000/svg">
<path d="M23.5 1.70909C20.5575 1.70909 17.7039 2.285 15.0185 3.42083C12.4239 4.51826 10.0933 6.08971 8.0915 8.0915C6.08971 10.0933 4.51826 12.4239 3.42083 15.0185C2.285 17.7039 1.70909 20.5575 1.70909 23.5C1.70909 26.4425 2.285 29.2961 3.42083 31.9815C4.51826 34.5761 6.08971 36.9067 8.0915 38.9085C10.0933 40.9103 12.4239 42.4817 15.0185 43.5792C17.7039 44.715 20.5575 45.2909 23.5 45.2909C26.4425 45.2909 29.2961 44.715 31.9815 43.5792C34.5761 42.4817 36.9067 40.9103 38.9085 38.9085C40.9103 36.9067 42.4817 34.5761 43.5792 31.9815C44.715 29.2961 45.2909 26.4425 45.2909 23.5C45.2909 20.5575 44.715 17.7039 43.5792 15.0185C42.4817 12.4239 40.9103 10.0933 38.9085 8.0915C36.9067 6.08971 34.5761 4.51826 31.9815 3.42083C29.2961 2.285 26.4425 1.70909 23.5 1.70909ZM23.5 0C36.4787 0 47 10.5213 47 23.5C47 36.4787 36.4787 47 23.5 47C10.5213 47 0 36.4787 0 23.5C0 10.5213 10.5213 0 23.5 0Z" fill="#FC8E43"/>
<path d="M23.5 42.7273C34.1189 42.7273 42.7273 34.1189 42.7273 23.5C42.7273 12.8811 34.1189 4.27273 23.5 4.27273C12.881 4.27273 4.27271 12.8811 4.27271 23.5C4.27271 34.1189 12.881 42.7273 23.5 42.7273Z" fill="#EAEAEA"/>
</svg>
