<svg width="24" height="24" viewBox="0 0 24 24" fill="none" xmlns="http://www.w3.org/2000/svg">
<path d="M20.9363 13.0727C21.1354 12.973 21.3027 12.8198 21.4197 12.6303C21.5367 12.4409 21.5986 12.2226 21.5986 11.9999C21.5986 11.7773 21.5367 11.559 21.4197 11.3696C21.3027 11.1801 21.1354 11.0269 20.9363 10.9271L4.13631 2.52714C3.92801 2.42291 3.69387 2.38156 3.46247 2.40813C3.23106 2.4347 3.01239 2.52804 2.83313 2.67677C2.65387 2.8255 2.52177 3.02318 2.45294 3.24571C2.38411 3.46823 2.38153 3.70598 2.44551 3.92994L4.16031 9.92994C4.23204 10.1807 4.38352 10.4013 4.59182 10.5583C4.80011 10.7152 5.05389 10.8001 5.31471 10.7999L10.7999 10.7999C11.1182 10.7999 11.4234 10.9264 11.6484 11.1514C11.8735 11.3765 11.9999 11.6817 11.9999 11.9999C11.9999 12.3182 11.8735 12.6234 11.6484 12.8485C11.4234 13.0735 11.1182 13.1999 10.7999 13.1999L5.31471 13.1999C5.05389 13.1998 4.80011 13.2846 4.59182 13.4416C4.38352 13.5986 4.23204 13.8192 4.16031 14.0699L2.44671 20.0699C2.3826 20.2938 2.38503 20.5315 2.45369 20.7541C2.52236 20.9766 2.6543 21.1744 2.83342 21.3232C3.01254 21.4721 3.2311 21.5656 3.46245 21.5923C3.6938 21.6191 3.92794 21.578 4.13631 21.4739L20.9363 13.0739L20.9363 13.0727Z" fill="#6D2B7D"/>
</svg>
