<svg width="32" height="32" viewBox="0 0 32 32" fill="none" xmlns="http://www.w3.org/2000/svg">
<path fill-rule="evenodd" clip-rule="evenodd" d="M11.2 6.4C11.2 5.12696 11.7058 3.90606 12.6059 3.00589C13.5061 2.10571 14.727 1.6 16 1.6C17.2731 1.6 18.494 2.10571 19.3942 3.00589C20.2943 3.90606 20.8 5.12696 20.8 6.4V12.8C20.8 14.073 20.2943 15.2939 19.3942 16.1941C18.494 17.0943 17.2731 17.6 16 17.6C14.727 17.6 13.5061 17.0943 12.6059 16.1941C11.7058 15.2939 11.2 14.073 11.2 12.8V6.4ZM17.6 23.888C20.266 23.5029 22.7039 22.17 24.467 20.1336C26.2301 18.0972 27.2004 15.4936 27.2 12.8C27.2 12.3757 27.0315 11.9687 26.7314 11.6686C26.4314 11.3686 26.0244 11.2 25.6 11.2C25.1757 11.2 24.7687 11.3686 24.4687 11.6686C24.1686 11.9687 24 12.3757 24 12.8C24 14.9217 23.1572 16.9566 21.6569 18.4569C20.1566 19.9571 18.1218 20.8 16 20.8C13.8783 20.8 11.8435 19.9571 10.3432 18.4569C8.8429 16.9566 8.00005 14.9217 8.00005 12.8C8.00005 12.3757 7.83148 11.9687 7.53142 11.6686C7.23136 11.3686 6.8244 11.2 6.40005 11.2C5.9757 11.2 5.56874 11.3686 5.26868 11.6686C4.96862 11.9687 4.80005 12.3757 4.80005 12.8C4.79969 15.4936 5.76997 18.0972 7.53309 20.1336C9.29622 22.17 11.7341 23.5029 14.4 23.888V27.2H9.60005C9.1757 27.2 8.76874 27.3686 8.46868 27.6686C8.16862 27.9687 8.00005 28.3757 8.00005 28.8C8.00005 29.2243 8.16862 29.6313 8.46868 29.9314C8.76874 30.2314 9.1757 30.4 9.60005 30.4H22.4C22.8244 30.4 23.2314 30.2314 23.5314 29.9314C23.8315 29.6313 24 29.2243 24 28.8C24 28.3757 23.8315 27.9687 23.5314 27.6686C23.2314 27.3686 22.8244 27.2 22.4 27.2H17.6V23.888Z" fill="white"/>
</svg>
