<svg width="25" height="25" viewBox="0 0 25 25" fill="none" xmlns="http://www.w3.org/2000/svg">
<path d="M12.4997 13.5417C13.075 13.5417 13.5414 13.0753 13.5414 12.5C13.5414 11.9247 13.075 11.4583 12.4997 11.4583C11.9244 11.4583 11.458 11.9247 11.458 12.5C11.458 13.0753 11.9244 13.5417 12.4997 13.5417Z" stroke="#C3C6CE" stroke-width="2.00165" stroke-linecap="round" stroke-linejoin="round"/>
<path d="M19.7915 13.5417C20.3668 13.5417 20.8331 13.0753 20.8331 12.5C20.8331 11.9247 20.3668 11.4583 19.7915 11.4583C19.2162 11.4583 18.7498 11.9247 18.7498 12.5C18.7498 13.0753 19.2162 13.5417 19.7915 13.5417Z" stroke="#C3C6CE" stroke-width="2.00165" stroke-linecap="round" stroke-linejoin="round"/>
<path d="M5.20795 13.5417C5.78325 13.5417 6.24962 13.0753 6.24962 12.5C6.24962 11.9247 5.78325 11.4583 5.20795 11.4583C4.63266 11.4583 4.16629 11.9247 4.16629 12.5C4.16629 13.0753 4.63266 13.5417 5.20795 13.5417Z" stroke="#C3C6CE" stroke-width="2.00165" stroke-linecap="round" stroke-linejoin="round"/>
</svg>
