<svg width="15" height="15" viewBox="0 0 15 15" fill="none" xmlns="http://www.w3.org/2000/svg">
<path fill-rule="evenodd" clip-rule="evenodd" d="M7.33687 1.25C10.6931 1.25 13.4231 3.98 13.4231 7.33625C13.4231 8.91972 12.8154 10.3639 11.821 11.4478L13.7778 13.4004C13.9609 13.5836 13.9615 13.8798 13.7784 14.0629C13.6871 14.1554 13.5665 14.2011 13.4465 14.2011C13.3271 14.2011 13.2071 14.1554 13.1152 14.0642L11.1349 12.0894C10.0932 12.9237 8.7723 13.4231 7.33687 13.4231C3.98063 13.4231 1.25 10.6925 1.25 7.33625C1.25 3.98 3.98063 1.25 7.33687 1.25ZM7.33687 2.1875C4.4975 2.1875 2.1875 4.49687 2.1875 7.33625C2.1875 10.1756 4.4975 12.4856 7.33687 12.4856C10.1756 12.4856 12.4856 10.1756 12.4856 7.33625C12.4856 4.49687 10.1756 2.1875 7.33687 2.1875Z" fill="#C6C6C6"/>
</svg>
