<svg width="114" height="60" viewBox="0 0 114 60" fill="none" xmlns="http://www.w3.org/2000/svg">
<g filter="url(#filter0_d_13_467)">
<path d="M81.8823 2H32.1176C19.9024 2 9.99999 10.9543 9.99999 22C9.99999 33.0457 19.9024 42 32.1176 42H81.8823C94.0975 42 104 33.0457 104 22C104 10.9543 94.0975 2 81.8823 2Z" fill="white"/>
<path d="M81.8823 2.30005H32.1177C20.0857 2.30005 10.3318 11.12 10.3318 22C10.3318 32.88 20.0857 41.7 32.1177 41.7H81.8823C93.9143 41.7 103.668 32.88 103.668 22C103.668 11.12 93.9143 2.30005 81.8823 2.30005Z" stroke="#EEEEEE" stroke-width="0.6"/>
</g>
<defs>
<filter id="filter0_d_13_467" x="0" y="0" width="114" height="60" filterUnits="userSpaceOnUse" color-interpolation-filters="sRGB">
<feFlood flood-opacity="0" result="BackgroundImageFix"/>
<feColorMatrix in="SourceAlpha" type="matrix" values="0 0 0 0 0 0 0 0 0 0 0 0 0 0 0 0 0 0 127 0" result="hardAlpha"/>
<feOffset dy="8"/>
<feGaussianBlur stdDeviation="5"/>
<feColorMatrix type="matrix" values="0 0 0 0 0.0941176 0 0 0 0 0.317647 0 0 0 0 0.623529 0 0 0 0.02 0"/>
<feBlend mode="normal" in2="BackgroundImageFix" result="effect1_dropShadow_13_467"/>
<feBlend mode="normal" in="SourceGraphic" in2="effect1_dropShadow_13_467" result="shape"/>
</filter>
</defs>
</svg>
