<svg width="36" height="36" viewBox="0 0 36 36" fill="none" xmlns="http://www.w3.org/2000/svg">
<path d="M28 35.5H8C3.86449 35.5 0.5 32.1355 0.5 28V8C0.5 3.86449 3.86449 0.5 8 0.5H28C32.1355 0.5 35.5 3.86449 35.5 8V28C35.5 32.1355 32.1355 35.5 28 35.5Z" fill="white"/>
<path d="M8 1C4.14019 1 1 4.14019 1 8V28C1 31.8598 4.14019 35 8 35H28C31.8598 35 35 31.8598 35 28V8C35 4.14019 31.8598 1 28 1H8ZM8 0H28C32.4183 0 36 3.58172 36 8V28C36 32.4183 32.4183 36 28 36H8C3.58172 36 0 32.4183 0 28V8C0 3.58172 3.58172 0 8 0Z" fill="#EEEEEE"/>
<path fill-rule="evenodd" clip-rule="evenodd" d="M15.293 22.707C15.1055 22.5195 15.0002 22.2652 15.0002 22C15.0002 21.7348 15.1055 21.4805 15.293 21.293L18.586 18L15.293 14.707C15.1975 14.6148 15.1213 14.5044 15.0689 14.3824C15.0165 14.2604 14.9889 14.1292 14.9877 13.9964C14.9866 13.8636 15.0119 13.7319 15.0622 13.6091C15.1124 13.4862 15.1867 13.3745 15.2806 13.2806C15.3745 13.1867 15.4861 13.1125 15.609 13.0622C15.7319 13.0119 15.8636 12.9866 15.9964 12.9878C16.1292 12.9889 16.2604 13.0165 16.3824 13.0689C16.5044 13.1213 16.6147 13.1975 16.707 13.293L20.707 17.293C20.8945 17.4805 20.9998 17.7348 20.9998 18C20.9998 18.2652 20.8945 18.5195 20.707 18.707L16.707 22.707C16.5195 22.8945 16.2652 22.9998 16 22.9998C15.7348 22.9998 15.4805 22.8945 15.293 22.707Z" fill="#919191"/>
</svg>
