<svg width="21" height="21" viewBox="0 0 21 21" fill="none" xmlns="http://www.w3.org/2000/svg">
<path d="M10.5005 11.3749C10.9838 11.3749 11.3755 10.9832 11.3755 10.4999C11.3755 10.0167 10.9838 9.62494 10.5005 9.62494C10.0173 9.62494 9.62555 10.0167 9.62555 10.4999C9.62555 10.9832 10.0173 11.3749 10.5005 11.3749Z" stroke="white" stroke-width="2.00165" stroke-linecap="round" stroke-linejoin="round"/>
<path d="M16.6253 11.3749C17.1085 11.3749 17.5002 10.9832 17.5002 10.4999C17.5002 10.0167 17.1085 9.62494 16.6253 9.62494C16.142 9.62494 15.7503 10.0167 15.7503 10.4999C15.7503 10.9832 16.142 11.3749 16.6253 11.3749Z" stroke="white" stroke-width="2.00165" stroke-linecap="round" stroke-linejoin="round"/>
<path d="M4.37482 11.3749C4.85807 11.3749 5.24982 10.9832 5.24982 10.4999C5.24982 10.0167 4.85807 9.62494 4.37482 9.62494C3.89158 9.62494 3.49983 10.0167 3.49983 10.4999C3.49983 10.9832 3.89158 11.3749 4.37482 11.3749Z" stroke="white" stroke-width="2.00165" stroke-linecap="round" stroke-linejoin="round"/>
</svg>
