<svg width="32" height="32" viewBox="0 0 32 32" fill="none" xmlns="http://www.w3.org/2000/svg">
<path d="M28 7.97333C23.56 7.53333 19.0933 7.30666 14.64 7.30666C12 7.30666 9.36 7.44 6.72 7.70666L4 7.97333" stroke="#FBFBFD" stroke-width="1.5" stroke-linecap="round" stroke-linejoin="round"/>
<path d="M11.3334 6.62666L11.6267 4.88C11.84 3.61333 12 2.66666 14.2534 2.66666H17.7467C20 2.66666 20.1734 3.66666 20.3734 4.89333L20.6667 6.62666" stroke="#FBFBFD" stroke-width="1.5" stroke-linecap="round" stroke-linejoin="round"/>
<path d="M25.1334 12.1867L24.2667 25.6133C24.12 27.7067 24 29.3333 20.28 29.3333H11.72C8.00003 29.3333 7.88003 27.7067 7.73337 25.6133L6.8667 12.1867" stroke="#FBFBFD" stroke-width="1.5" stroke-linecap="round" stroke-linejoin="round"/>
<path d="M13.7733 22H18.2133" stroke="#FBFBFD" stroke-width="1.5" stroke-linecap="round" stroke-linejoin="round"/>
<path d="M12.6666 16.6667H19.3333" stroke="#FBFBFD" stroke-width="1.5" stroke-linecap="round" stroke-linejoin="round"/>
</svg>
