<svg width="103" height="43" viewBox="0 0 103 43" fill="none" xmlns="http://www.w3.org/2000/svg">
<g filter="url(#filter0_d_13_440)">
<path d="M81.5417 1.43055H21.4583C13.5576 1.43055 7.15278 7.83537 7.15278 15.7361C7.15278 23.6368 13.5576 30.0417 21.4583 30.0417H81.5417C89.4424 30.0417 95.8472 23.6368 95.8472 15.7361C95.8472 7.83537 89.4424 1.43055 81.5417 1.43055Z" fill="white"/>
<path d="M81.5417 1.64515H21.4583C13.6761 1.64515 7.36736 7.95389 7.36736 15.7361C7.36736 23.5183 13.6761 29.8271 21.4583 29.8271H81.5417C89.3239 29.8271 95.6326 23.5183 95.6326 15.7361C95.6326 7.95389 89.3239 1.64515 81.5417 1.64515Z" stroke="#4E008A" stroke-opacity="0.43" stroke-width="0.428202"/>
</g>
<defs>
<filter id="filter0_d_13_440" x="-4.77911e-07" y="-2.38956e-06" width="103" height="42.9167" filterUnits="userSpaceOnUse" color-interpolation-filters="sRGB">
<feFlood flood-opacity="0" result="BackgroundImageFix"/>
<feColorMatrix in="SourceAlpha" type="matrix" values="0 0 0 0 0 0 0 0 0 0 0 0 0 0 0 0 0 0 127 0" result="hardAlpha"/>
<feOffset dy="5.70936"/>
<feGaussianBlur stdDeviation="3.56835"/>
<feColorMatrix type="matrix" values="0 0 0 0 0.0941176 0 0 0 0 0.317647 0 0 0 0 0.623529 0 0 0 0.02 0"/>
<feBlend mode="normal" in2="BackgroundImageFix" result="effect1_dropShadow_13_440"/>
<feBlend mode="normal" in="SourceGraphic" in2="effect1_dropShadow_13_440" result="shape"/>
</filter>
</defs>
</svg>
