<svg width="327" height="91" viewBox="0 0 327 91" fill="none" xmlns="http://www.w3.org/2000/svg">
<g filter="url(#filter0_f_103_1260)">
<rect x="36" y="80" width="242" height="11" rx="5.5" fill="#6D2B7D"/>
</g>
<mask id="mask0_103_1260" style="mask-type:alpha" maskUnits="userSpaceOnUse" x="0" y="0" width="327" height="88">
<path d="M0 7.33333C0 3.28324 7.16344 0 16 0H311C319.837 0 327 3.28325 327 7.33333V80.6667C327 84.7168 319.837 88 311 88H16C7.16345 88 0 84.7168 0 80.6667V7.33333Z" fill="#FADB00"/>
</mask>
<g mask="url(#mask0_103_1260)">
<path d="M0 7.33333C0 3.28324 7.16344 0 16 0H311C319.837 0 327 3.28325 327 7.33333V80.6667C327 84.7168 319.837 88 311 88H16C7.16345 88 0 84.7168 0 80.6667V7.33333Z" fill="#6D2B7D"/>
<path d="M87.4305 53.202C88.0931 53.202 88.6718 53.3467 89.1665 53.636C89.6705 53.9253 90.0438 54.2893 90.2865 54.728V53.328H91.5745V61.168C91.5745 61.868 91.4251 62.4887 91.1265 63.03C90.8278 63.5807 90.3985 64.01 89.8385 64.318C89.2878 64.626 88.6438 64.78 87.9065 64.78C86.8985 64.78 86.0585 64.542 85.3865 64.066C84.7145 63.59 84.3178 62.9413 84.1965 62.12H85.4565C85.5965 62.5867 85.8858 62.96 86.3245 63.24C86.7631 63.5293 87.2905 63.674 87.9065 63.674C88.6065 63.674 89.1758 63.4547 89.6145 63.016C90.0625 62.5773 90.2865 61.9613 90.2865 61.168V59.558C90.0345 60.006 89.6611 60.3793 89.1665 60.678C88.6718 60.9767 88.0931 61.126 87.4305 61.126C86.7491 61.126 86.1285 60.958 85.5685 60.622C85.0178 60.286 84.5838 59.8147 84.2665 59.208C83.9491 58.6013 83.7905 57.9107 83.7905 57.136C83.7905 56.352 83.9491 55.666 84.2665 55.078C84.5838 54.4807 85.0178 54.0187 85.5685 53.692C86.1285 53.3653 86.7491 53.202 87.4305 53.202ZM90.2865 57.15C90.2865 56.5713 90.1698 56.0673 89.9365 55.638C89.7031 55.2087 89.3858 54.882 88.9845 54.658C88.5925 54.4247 88.1585 54.308 87.6825 54.308C87.2065 54.308 86.7725 54.42 86.3805 54.644C85.9885 54.868 85.6758 55.1947 85.4425 55.624C85.2091 56.0533 85.0925 56.5573 85.0925 57.136C85.0925 57.724 85.2091 58.2373 85.4425 58.676C85.6758 59.1053 85.9885 59.4367 86.3805 59.67C86.7725 59.894 87.2065 60.006 87.6825 60.006C88.1585 60.006 88.5925 59.894 88.9845 59.67C89.3858 59.4367 89.7031 59.1053 89.9365 58.676C90.1698 58.2373 90.2865 57.7287 90.2865 57.15ZM100.727 56.87C100.727 57.1127 100.713 57.3693 100.685 57.64H94.5534C94.6001 58.396 94.8567 58.9887 95.3234 59.418C95.7994 59.838 96.3734 60.048 97.0454 60.048C97.5961 60.048 98.0534 59.922 98.4174 59.67C98.7907 59.4087 99.0521 59.0633 99.2014 58.634H100.573C100.368 59.3713 99.9574 59.9733 99.3414 60.44C98.7254 60.8973 97.9601 61.126 97.0454 61.126C96.3174 61.126 95.6641 60.9627 95.0854 60.636C94.5161 60.3093 94.0681 59.8473 93.7414 59.25C93.4147 58.6433 93.2514 57.9433 93.2514 57.15C93.2514 56.3567 93.4101 55.6613 93.7274 55.064C94.0447 54.4667 94.4881 54.0093 95.0574 53.692C95.6361 53.3653 96.2987 53.202 97.0454 53.202C97.7734 53.202 98.4174 53.3607 98.9774 53.678C99.5374 53.9953 99.9667 54.434 100.265 54.994C100.573 55.5447 100.727 56.17 100.727 56.87ZM99.4114 56.604C99.4114 56.1187 99.3041 55.7033 99.0894 55.358C98.8747 55.0033 98.5807 54.7373 98.2074 54.56C97.8434 54.3733 97.4374 54.28 96.9894 54.28C96.3454 54.28 95.7947 54.4853 95.3374 54.896C94.8894 55.3067 94.6327 55.876 94.5674 56.604H99.4114ZM103.963 54.378V58.9C103.963 59.2733 104.042 59.5393 104.201 59.698C104.36 59.8473 104.635 59.922 105.027 59.922H105.965V61H104.817C104.108 61 103.576 60.8367 103.221 60.51C102.866 60.1833 102.689 59.6467 102.689 58.9V54.378H101.695V53.328H102.689V51.396H103.963V53.328H105.965V54.378H103.963ZM120.467 53.188C121.064 53.188 121.596 53.314 122.063 53.566C122.53 53.8087 122.898 54.1773 123.169 54.672C123.44 55.1667 123.575 55.7687 123.575 56.478V61H122.315V56.66C122.315 55.8947 122.124 55.3113 121.741 54.91C121.368 54.4993 120.859 54.294 120.215 54.294C119.552 54.294 119.025 54.5087 118.633 54.938C118.241 55.358 118.045 55.9693 118.045 56.772V61H116.785V56.66C116.785 55.8947 116.594 55.3113 116.211 54.91C115.838 54.4993 115.329 54.294 114.685 54.294C114.022 54.294 113.495 54.5087 113.103 54.938C112.711 55.358 112.515 55.9693 112.515 56.772V61H111.241V53.328H112.515V54.434C112.767 54.0327 113.103 53.7247 113.523 53.51C113.952 53.2953 114.424 53.188 114.937 53.188C115.581 53.188 116.15 53.3327 116.645 53.622C117.14 53.9113 117.508 54.336 117.751 54.896C117.966 54.3547 118.32 53.9347 118.815 53.636C119.31 53.3373 119.86 53.188 120.467 53.188ZM129.011 61.126C128.292 61.126 127.639 60.9627 127.051 60.636C126.472 60.3093 126.015 59.8473 125.679 59.25C125.352 58.6433 125.189 57.9433 125.189 57.15C125.189 56.366 125.357 55.6753 125.693 55.078C126.038 54.4713 126.505 54.0093 127.093 53.692C127.681 53.3653 128.339 53.202 129.067 53.202C129.795 53.202 130.453 53.3653 131.041 53.692C131.629 54.0093 132.091 54.4667 132.427 55.064C132.772 55.6613 132.945 56.3567 132.945 57.15C132.945 57.9433 132.768 58.6433 132.413 59.25C132.068 59.8473 131.596 60.3093 130.999 60.636C130.402 60.9627 129.739 61.126 129.011 61.126ZM129.011 60.006C129.468 60.006 129.898 59.8987 130.299 59.684C130.7 59.4693 131.022 59.1473 131.265 58.718C131.517 58.2887 131.643 57.766 131.643 57.15C131.643 56.534 131.522 56.0113 131.279 55.582C131.036 55.1527 130.719 54.8353 130.327 54.63C129.935 54.4153 129.51 54.308 129.053 54.308C128.586 54.308 128.157 54.4153 127.765 54.63C127.382 54.8353 127.074 55.1527 126.841 55.582C126.608 56.0113 126.491 56.534 126.491 57.15C126.491 57.7753 126.603 58.3027 126.827 58.732C127.06 59.1613 127.368 59.4833 127.751 59.698C128.134 59.9033 128.554 60.006 129.011 60.006ZM135.894 54.574C136.118 54.1353 136.435 53.7947 136.846 53.552C137.266 53.3093 137.775 53.188 138.372 53.188V54.504H138.036C136.608 54.504 135.894 55.2787 135.894 56.828V61H134.62V53.328H135.894V54.574ZM146.843 56.87C146.843 57.1127 146.829 57.3693 146.801 57.64H140.669C140.715 58.396 140.972 58.9887 141.439 59.418C141.915 59.838 142.489 60.048 143.161 60.048C143.711 60.048 144.169 59.922 144.533 59.67C144.906 59.4087 145.167 59.0633 145.317 58.634H146.689C146.483 59.3713 146.073 59.9733 145.457 60.44C144.841 60.8973 144.075 61.126 143.161 61.126C142.433 61.126 141.779 60.9627 141.201 60.636C140.631 60.3093 140.183 59.8473 139.857 59.25C139.53 58.6433 139.367 57.9433 139.367 57.15C139.367 56.3567 139.525 55.6613 139.843 55.064C140.16 54.4667 140.603 54.0093 141.173 53.692C141.751 53.3653 142.414 53.202 143.161 53.202C143.889 53.202 144.533 53.3607 145.093 53.678C145.653 53.9953 146.082 54.434 146.381 54.994C146.689 55.5447 146.843 56.17 146.843 56.87ZM145.527 56.604C145.527 56.1187 145.419 55.7033 145.205 55.358C144.99 55.0033 144.696 54.7373 144.323 54.56C143.959 54.3733 143.553 54.28 143.105 54.28C142.461 54.28 141.91 54.4853 141.453 54.896C141.005 55.3067 140.748 55.876 140.683 56.604H145.527ZM155.379 54.378H153.769V61H152.495V54.378H151.501V53.328H152.495V52.782C152.495 51.9233 152.714 51.298 153.153 50.906C153.601 50.5047 154.315 50.304 155.295 50.304V51.368C154.735 51.368 154.338 51.48 154.105 51.704C153.881 51.9187 153.769 52.278 153.769 52.782V53.328H155.379V54.378ZM163.864 56.87C163.864 57.1127 163.85 57.3693 163.822 57.64H157.69C157.737 58.396 157.993 58.9887 158.46 59.418C158.936 59.838 159.51 60.048 160.182 60.048C160.733 60.048 161.19 59.922 161.554 59.67C161.927 59.4087 162.189 59.0633 162.338 58.634H163.71C163.505 59.3713 163.094 59.9733 162.478 60.44C161.862 60.8973 161.097 61.126 160.182 61.126C159.454 61.126 158.801 60.9627 158.222 60.636C157.653 60.3093 157.205 59.8473 156.878 59.25C156.551 58.6433 156.388 57.9433 156.388 57.15C156.388 56.3567 156.547 55.6613 156.864 55.064C157.181 54.4667 157.625 54.0093 158.194 53.692C158.773 53.3653 159.435 53.202 160.182 53.202C160.91 53.202 161.554 53.3607 162.114 53.678C162.674 53.9953 163.103 54.434 163.402 54.994C163.71 55.5447 163.864 56.17 163.864 56.87ZM162.548 56.604C162.548 56.1187 162.441 55.7033 162.226 55.358C162.011 55.0033 161.717 54.7373 161.344 54.56C160.98 54.3733 160.574 54.28 160.126 54.28C159.482 54.28 158.931 54.4853 158.474 54.896C158.026 55.3067 157.769 55.876 157.704 56.604H162.548ZM165.07 57.136C165.07 56.352 165.228 55.666 165.546 55.078C165.863 54.4807 166.297 54.0187 166.848 53.692C167.408 53.3653 168.028 53.202 168.71 53.202C169.382 53.202 169.965 53.3467 170.46 53.636C170.954 53.9253 171.323 54.2893 171.566 54.728V53.328H172.854V61H171.566V59.572C171.314 60.02 170.936 60.3933 170.432 60.692C169.937 60.9813 169.358 61.126 168.696 61.126C168.014 61.126 167.398 60.958 166.848 60.622C166.297 60.286 165.863 59.8147 165.546 59.208C165.228 58.6013 165.07 57.9107 165.07 57.136ZM171.566 57.15C171.566 56.5713 171.449 56.0673 171.216 55.638C170.982 55.2087 170.665 54.882 170.264 54.658C169.872 54.4247 169.438 54.308 168.962 54.308C168.486 54.308 168.052 54.42 167.66 54.644C167.268 54.868 166.955 55.1947 166.722 55.624C166.488 56.0533 166.372 56.5573 166.372 57.136C166.372 57.724 166.488 58.2373 166.722 58.676C166.955 59.1053 167.268 59.4367 167.66 59.67C168.052 59.894 168.486 60.006 168.962 60.006C169.438 60.006 169.872 59.894 170.264 59.67C170.665 59.4367 170.982 59.1053 171.216 58.676C171.449 58.2373 171.566 57.7287 171.566 57.15ZM176.561 54.378V58.9C176.561 59.2733 176.64 59.5393 176.799 59.698C176.957 59.8473 177.233 59.922 177.625 59.922H178.563V61H177.415C176.705 61 176.173 60.8367 175.819 60.51C175.464 60.1833 175.287 59.6467 175.287 58.9V54.378H174.293V53.328H175.287V51.396H176.561V53.328H178.563V54.378H176.561ZM186.91 53.328V61H185.636V59.866C185.394 60.258 185.053 60.566 184.614 60.79C184.185 61.0047 183.709 61.112 183.186 61.112C182.589 61.112 182.052 60.9907 181.576 60.748C181.1 60.496 180.722 60.1227 180.442 59.628C180.172 59.1333 180.036 58.5313 180.036 57.822V53.328H181.296V57.654C181.296 58.41 181.488 58.9933 181.87 59.404C182.253 59.8053 182.776 60.006 183.438 60.006C184.12 60.006 184.656 59.796 185.048 59.376C185.44 58.956 185.636 58.3447 185.636 57.542V53.328H186.91ZM190.335 54.574C190.559 54.1353 190.877 53.7947 191.287 53.552C191.707 53.3093 192.216 53.188 192.813 53.188V54.504H192.477C191.049 54.504 190.335 55.2787 190.335 56.828V61H189.061V53.328H190.335V54.574ZM201.284 56.87C201.284 57.1127 201.27 57.3693 201.242 57.64H195.11C195.157 58.396 195.413 58.9887 195.88 59.418C196.356 59.838 196.93 60.048 197.602 60.048C198.153 60.048 198.61 59.922 198.974 59.67C199.347 59.4087 199.609 59.0633 199.758 58.634H201.13C200.925 59.3713 200.514 59.9733 199.898 60.44C199.282 60.8973 198.517 61.126 197.602 61.126C196.874 61.126 196.221 60.9627 195.642 60.636C195.073 60.3093 194.625 59.8473 194.298 59.25C193.971 58.6433 193.808 57.9433 193.808 57.15C193.808 56.3567 193.967 55.6613 194.284 55.064C194.601 54.4667 195.045 54.0093 195.614 53.692C196.193 53.3653 196.855 53.202 197.602 53.202C198.33 53.202 198.974 53.3607 199.534 53.678C200.094 53.9953 200.523 54.434 200.822 54.994C201.13 55.5447 201.284 56.17 201.284 56.87ZM199.968 56.604C199.968 56.1187 199.861 55.7033 199.646 55.358C199.431 55.0033 199.137 54.7373 198.764 54.56C198.4 54.3733 197.994 54.28 197.546 54.28C196.902 54.28 196.351 54.4853 195.894 54.896C195.446 55.3067 195.189 55.876 195.124 56.604H199.968ZM205.682 61.126C205.094 61.126 204.566 61.028 204.1 60.832C203.633 60.6267 203.264 60.3467 202.994 59.992C202.723 59.628 202.574 59.2127 202.546 58.746H203.862C203.899 59.1287 204.076 59.4413 204.394 59.684C204.72 59.9267 205.145 60.048 205.668 60.048C206.153 60.048 206.536 59.9407 206.816 59.726C207.096 59.5113 207.236 59.2407 207.236 58.914C207.236 58.578 207.086 58.3307 206.788 58.172C206.489 58.004 206.027 57.8407 205.402 57.682C204.832 57.5327 204.366 57.3833 204.002 57.234C203.647 57.0753 203.339 56.8467 203.078 56.548C202.826 56.24 202.7 55.8387 202.7 55.344C202.7 54.952 202.816 54.5927 203.05 54.266C203.283 53.9393 203.614 53.6827 204.044 53.496C204.473 53.3 204.963 53.202 205.514 53.202C206.363 53.202 207.049 53.4167 207.572 53.846C208.094 54.2753 208.374 54.8633 208.412 55.61H207.138C207.11 55.2087 206.946 54.8867 206.648 54.644C206.358 54.4013 205.966 54.28 205.472 54.28C205.014 54.28 204.65 54.378 204.38 54.574C204.109 54.77 203.974 55.0267 203.974 55.344C203.974 55.596 204.053 55.806 204.212 55.974C204.38 56.1327 204.585 56.2633 204.828 56.366C205.08 56.4593 205.425 56.5667 205.864 56.688C206.414 56.8373 206.862 56.9867 207.208 57.136C207.553 57.276 207.847 57.4907 208.09 57.78C208.342 58.0693 208.472 58.4473 208.482 58.914C208.482 59.334 208.365 59.712 208.132 60.048C207.898 60.384 207.567 60.65 207.138 60.846C206.718 61.0327 206.232 61.126 205.682 61.126ZM213.537 57.136C213.537 56.352 213.695 55.666 214.013 55.078C214.33 54.4807 214.764 54.0187 215.315 53.692C215.875 53.3653 216.495 53.202 217.177 53.202C217.849 53.202 218.432 53.3467 218.927 53.636C219.421 53.9253 219.79 54.2893 220.033 54.728V53.328H221.321V61H220.033V59.572C219.781 60.02 219.403 60.3933 218.899 60.692C218.404 60.9813 217.825 61.126 217.163 61.126C216.481 61.126 215.865 60.958 215.315 60.622C214.764 60.286 214.33 59.8147 214.013 59.208C213.695 58.6013 213.537 57.9107 213.537 57.136ZM220.033 57.15C220.033 56.5713 219.916 56.0673 219.683 55.638C219.449 55.2087 219.132 54.882 218.731 54.658C218.339 54.4247 217.905 54.308 217.429 54.308C216.953 54.308 216.519 54.42 216.127 54.644C215.735 54.868 215.422 55.1947 215.189 55.624C214.955 56.0533 214.839 56.5573 214.839 57.136C214.839 57.724 214.955 58.2373 215.189 58.676C215.422 59.1053 215.735 59.4367 216.127 59.67C216.519 59.894 216.953 60.006 217.429 60.006C217.905 60.006 218.339 59.894 218.731 59.67C219.132 59.4367 219.449 59.1053 219.683 58.676C219.916 58.2373 220.033 57.7287 220.033 57.15ZM227.212 53.188C228.145 53.188 228.901 53.4727 229.48 54.042C230.058 54.602 230.348 55.414 230.348 56.478V61H229.088V56.66C229.088 55.8947 228.896 55.3113 228.514 54.91C228.131 54.4993 227.608 54.294 226.946 54.294C226.274 54.294 225.737 54.504 225.336 54.924C224.944 55.344 224.748 55.9553 224.748 56.758V61H223.474V53.328H224.748V54.42C225 54.028 225.34 53.7247 225.77 53.51C226.208 53.2953 226.689 53.188 227.212 53.188ZM231.953 57.136C231.953 56.352 232.111 55.666 232.429 55.078C232.746 54.4807 233.18 54.0187 233.731 53.692C234.291 53.3653 234.916 53.202 235.607 53.202C236.204 53.202 236.759 53.342 237.273 53.622C237.786 53.8927 238.178 54.252 238.449 54.7V50.64H239.737V61H238.449V59.558C238.197 60.0153 237.823 60.3933 237.329 60.692C236.834 60.9813 236.255 61.126 235.593 61.126C234.911 61.126 234.291 60.958 233.731 60.622C233.18 60.286 232.746 59.8147 232.429 59.208C232.111 58.6013 231.953 57.9107 231.953 57.136ZM238.449 57.15C238.449 56.5713 238.332 56.0673 238.099 55.638C237.865 55.2087 237.548 54.882 237.147 54.658C236.755 54.4247 236.321 54.308 235.845 54.308C235.369 54.308 234.935 54.42 234.543 54.644C234.151 54.868 233.838 55.1947 233.605 55.624C233.371 56.0533 233.255 56.5573 233.255 57.136C233.255 57.724 233.371 58.2373 233.605 58.676C233.838 59.1053 234.151 59.4367 234.543 59.67C234.935 59.894 235.369 60.006 235.845 60.006C236.321 60.006 236.755 59.894 237.147 59.67C237.548 59.4367 237.865 59.1053 238.099 58.676C238.332 58.2373 238.449 57.7287 238.449 57.15Z" fill="white"/>
<path d="M88.0761 28.88V40H86.2521V32.384L82.8601 40H81.5961L78.1881 32.384V40H76.3641V28.88H78.3321L82.2361 37.6L86.1241 28.88H88.0761ZM94.2974 40.144C93.4654 40.144 92.7134 39.9573 92.0414 39.584C91.3694 39.2 90.8414 38.6667 90.4574 37.984C90.0734 37.2907 89.8814 36.4907 89.8814 35.584C89.8814 34.688 90.0788 33.8933 90.4734 33.2C90.8681 32.5067 91.4068 31.9733 92.0894 31.6C92.7721 31.2267 93.5348 31.04 94.3774 31.04C95.2201 31.04 95.9828 31.2267 96.6654 31.6C97.3481 31.9733 97.8868 32.5067 98.2814 33.2C98.6761 33.8933 98.8734 34.688 98.8734 35.584C98.8734 36.48 98.6708 37.2747 98.2654 37.968C97.8601 38.6613 97.3054 39.2 96.6014 39.584C95.9081 39.9573 95.1401 40.144 94.2974 40.144ZM94.2974 38.56C94.7668 38.56 95.2041 38.448 95.6094 38.224C96.0254 38 96.3614 37.664 96.6174 37.216C96.8734 36.768 97.0014 36.224 97.0014 35.584C97.0014 34.944 96.8788 34.4053 96.6334 33.968C96.3881 33.52 96.0628 33.184 95.6574 32.96C95.2521 32.736 94.8148 32.624 94.3454 32.624C93.8761 32.624 93.4388 32.736 93.0334 32.96C92.6388 33.184 92.3241 33.52 92.0894 33.968C91.8548 34.4053 91.7374 34.944 91.7374 35.584C91.7374 36.5333 91.9774 37.2693 92.4574 37.792C92.9481 38.304 93.5614 38.56 94.2974 38.56ZM102.501 32.464C102.767 32.016 103.119 31.6693 103.557 31.424C104.005 31.168 104.533 31.04 105.141 31.04V32.928H104.677C103.962 32.928 103.418 33.1093 103.045 33.472C102.682 33.8347 102.501 34.464 102.501 35.36V40H100.677V31.184H102.501V32.464ZM114.897 35.376C114.897 35.7067 114.876 36.0053 114.833 36.272H108.097C108.151 36.976 108.412 37.5413 108.881 37.968C109.351 38.3947 109.927 38.608 110.609 38.608C111.591 38.608 112.284 38.1973 112.689 37.376H114.657C114.391 38.1867 113.905 38.8533 113.201 39.376C112.508 39.888 111.644 40.144 110.609 40.144C109.767 40.144 109.009 39.9573 108.337 39.584C107.676 39.2 107.153 38.6667 106.769 37.984C106.396 37.2907 106.209 36.4907 106.209 35.584C106.209 34.6773 106.391 33.8827 106.753 33.2C107.127 32.5067 107.644 31.9733 108.305 31.6C108.977 31.2267 109.745 31.04 110.609 31.04C111.441 31.04 112.183 31.2213 112.833 31.584C113.484 31.9467 113.991 32.4587 114.353 33.12C114.716 33.7707 114.897 34.5227 114.897 35.376ZM112.993 34.8C112.983 34.128 112.743 33.5893 112.273 33.184C111.804 32.7787 111.223 32.576 110.529 32.576C109.9 32.576 109.361 32.7787 108.913 33.184C108.465 33.5787 108.199 34.1173 108.113 34.8H112.993ZM124.048 40.144C123.355 40.144 122.731 40.0213 122.176 39.776C121.632 39.52 121.2 39.1787 120.88 38.752C120.56 38.3147 120.39 37.8293 120.368 37.296H122.256C122.288 37.6693 122.464 37.984 122.784 38.24C123.115 38.4853 123.526 38.608 124.016 38.608C124.528 38.608 124.923 38.512 125.2 38.32C125.488 38.1173 125.632 37.8613 125.632 37.552C125.632 37.2213 125.472 36.976 125.152 36.816C124.843 36.656 124.347 36.48 123.664 36.288C123.003 36.1067 122.464 35.9307 122.048 35.76C121.632 35.5893 121.27 35.328 120.96 34.976C120.662 34.624 120.512 34.16 120.512 33.584C120.512 33.1147 120.651 32.688 120.928 32.304C121.206 31.9093 121.6 31.6 122.112 31.376C122.635 31.152 123.232 31.04 123.904 31.04C124.907 31.04 125.712 31.296 126.32 31.808C126.939 32.3093 127.27 32.9973 127.312 33.872H125.488C125.456 33.4773 125.296 33.1627 125.008 32.928C124.72 32.6933 124.331 32.576 123.84 32.576C123.36 32.576 122.992 32.6667 122.736 32.848C122.48 33.0293 122.352 33.2693 122.352 33.568C122.352 33.8027 122.438 34 122.608 34.16C122.779 34.32 122.987 34.448 123.232 34.544C123.478 34.6293 123.84 34.7413 124.32 34.88C124.96 35.0507 125.483 35.2267 125.888 35.408C126.304 35.5787 126.662 35.8347 126.96 36.176C127.259 36.5173 127.414 36.9707 127.424 37.536C127.424 38.0373 127.286 38.4853 127.008 38.88C126.731 39.2747 126.336 39.584 125.824 39.808C125.323 40.032 124.731 40.144 124.048 40.144ZM137.475 35.376C137.475 35.7067 137.454 36.0053 137.411 36.272H130.675C130.729 36.976 130.99 37.5413 131.459 37.968C131.929 38.3947 132.505 38.608 133.187 38.608C134.169 38.608 134.862 38.1973 135.267 37.376H137.235C136.969 38.1867 136.483 38.8533 135.779 39.376C135.086 39.888 134.222 40.144 133.187 40.144C132.345 40.144 131.587 39.9573 130.915 39.584C130.254 39.2 129.731 38.6667 129.347 37.984C128.974 37.2907 128.787 36.4907 128.787 35.584C128.787 34.6773 128.969 33.8827 129.331 33.2C129.705 32.5067 130.222 31.9733 130.883 31.6C131.555 31.2267 132.323 31.04 133.187 31.04C134.019 31.04 134.761 31.2213 135.411 31.584C136.062 31.9467 136.569 32.4587 136.931 33.12C137.294 33.7707 137.475 34.5227 137.475 35.376ZM135.571 34.8C135.561 34.128 135.321 33.5893 134.851 33.184C134.382 32.7787 133.801 32.576 133.107 32.576C132.478 32.576 131.939 32.7787 131.491 33.184C131.043 33.5787 130.777 34.1173 130.691 34.8H135.571ZM141.094 32.464C141.361 32.016 141.713 31.6693 142.15 31.424C142.598 31.168 143.126 31.04 143.734 31.04V32.928H143.27C142.556 32.928 142.012 33.1093 141.638 33.472C141.276 33.8347 141.094 34.464 141.094 35.36V40H139.27V31.184H141.094V32.464ZM146.339 30.016C146.008 30.016 145.731 29.904 145.507 29.68C145.283 29.456 145.171 29.1787 145.171 28.848C145.171 28.5173 145.283 28.24 145.507 28.016C145.731 27.792 146.008 27.68 146.339 27.68C146.659 27.68 146.931 27.792 147.155 28.016C147.379 28.24 147.491 28.5173 147.491 28.848C147.491 29.1787 147.379 29.456 147.155 29.68C146.931 29.904 146.659 30.016 146.339 30.016ZM147.235 31.184V40H145.411V31.184H147.235ZM153.454 40.144C152.622 40.144 151.87 39.9573 151.198 39.584C150.526 39.2 149.998 38.6667 149.614 37.984C149.23 37.2907 149.038 36.4907 149.038 35.584C149.038 34.688 149.235 33.8933 149.63 33.2C150.024 32.5067 150.563 31.9733 151.246 31.6C151.928 31.2267 152.691 31.04 153.534 31.04C154.376 31.04 155.139 31.2267 155.822 31.6C156.504 31.9733 157.043 32.5067 157.438 33.2C157.832 33.8933 158.03 34.688 158.03 35.584C158.03 36.48 157.827 37.2747 157.422 37.968C157.016 38.6613 156.462 39.2 155.758 39.584C155.064 39.9573 154.296 40.144 153.454 40.144ZM153.454 38.56C153.923 38.56 154.36 38.448 154.766 38.224C155.182 38 155.518 37.664 155.774 37.216C156.03 36.768 156.158 36.224 156.158 35.584C156.158 34.944 156.035 34.4053 155.79 33.968C155.544 33.52 155.219 33.184 154.814 32.96C154.408 32.736 153.971 32.624 153.502 32.624C153.032 32.624 152.595 32.736 152.19 32.96C151.795 33.184 151.48 33.52 151.246 33.968C151.011 34.4053 150.894 34.944 150.894 35.584C150.894 36.5333 151.134 37.2693 151.614 37.792C152.104 38.304 152.718 38.56 153.454 38.56ZM167.817 31.184V40H165.993V38.96C165.705 39.3227 165.326 39.6107 164.857 39.824C164.398 40.0267 163.907 40.128 163.385 40.128C162.691 40.128 162.067 39.984 161.513 39.696C160.969 39.408 160.537 38.9813 160.217 38.416C159.907 37.8507 159.753 37.168 159.753 36.368V31.184H161.561V36.096C161.561 36.8853 161.758 37.4933 162.153 37.92C162.547 38.336 163.086 38.544 163.769 38.544C164.451 38.544 164.99 38.336 165.385 37.92C165.79 37.4933 165.993 36.8853 165.993 36.096V31.184H167.817ZM173.423 40.144C172.73 40.144 172.106 40.0213 171.551 39.776C171.007 39.52 170.575 39.1787 170.255 38.752C169.935 38.3147 169.765 37.8293 169.743 37.296H171.631C171.663 37.6693 171.839 37.984 172.159 38.24C172.49 38.4853 172.901 38.608 173.391 38.608C173.903 38.608 174.298 38.512 174.575 38.32C174.863 38.1173 175.007 37.8613 175.007 37.552C175.007 37.2213 174.847 36.976 174.527 36.816C174.218 36.656 173.722 36.48 173.039 36.288C172.378 36.1067 171.839 35.9307 171.423 35.76C171.007 35.5893 170.645 35.328 170.335 34.976C170.037 34.624 169.887 34.16 169.887 33.584C169.887 33.1147 170.026 32.688 170.303 32.304C170.581 31.9093 170.975 31.6 171.487 31.376C172.01 31.152 172.607 31.04 173.279 31.04C174.282 31.04 175.087 31.296 175.695 31.808C176.314 32.3093 176.645 32.9973 176.687 33.872H174.863C174.831 33.4773 174.671 33.1627 174.383 32.928C174.095 32.6933 173.706 32.576 173.215 32.576C172.735 32.576 172.367 32.6667 172.111 32.848C171.855 33.0293 171.727 33.2693 171.727 33.568C171.727 33.8027 171.813 34 171.983 34.16C172.154 34.32 172.362 34.448 172.607 34.544C172.853 34.6293 173.215 34.7413 173.695 34.88C174.335 35.0507 174.858 35.2267 175.263 35.408C175.679 35.5787 176.037 35.8347 176.335 36.176C176.634 36.5173 176.789 36.9707 176.799 37.536C176.799 38.0373 176.661 38.4853 176.383 38.88C176.106 39.2747 175.711 39.584 175.199 39.808C174.698 40.032 174.106 40.144 173.423 40.144ZM191.007 35.376C191.007 35.7067 190.985 36.0053 190.943 36.272H184.207C184.26 36.976 184.521 37.5413 184.991 37.968C185.46 38.3947 186.036 38.608 186.719 38.608C187.7 38.608 188.393 38.1973 188.799 37.376H190.767C190.5 38.1867 190.015 38.8533 189.311 39.376C188.617 39.888 187.753 40.144 186.719 40.144C185.876 40.144 185.119 39.9573 184.447 39.584C183.785 39.2 183.263 38.6667 182.879 37.984C182.505 37.2907 182.319 36.4907 182.319 35.584C182.319 34.6773 182.5 33.8827 182.863 33.2C183.236 32.5067 183.753 31.9733 184.415 31.6C185.087 31.2267 185.855 31.04 186.719 31.04C187.551 31.04 188.292 31.2213 188.943 31.584C189.593 31.9467 190.1 32.4587 190.463 33.12C190.825 33.7707 191.007 34.5227 191.007 35.376ZM189.103 34.8C189.092 34.128 188.852 33.5893 188.383 33.184C187.913 32.7787 187.332 32.576 186.639 32.576C186.009 32.576 185.471 32.7787 185.023 33.184C184.575 33.5787 184.308 34.1173 184.223 34.8H189.103ZM196.578 35.536L199.426 40H197.362L195.458 37.008L193.666 40H191.762L194.61 35.664L191.762 31.184H193.826L195.73 34.176L197.522 31.184H199.426L196.578 35.536ZM208.866 35.376C208.866 35.7067 208.845 36.0053 208.802 36.272H202.066C202.119 36.976 202.381 37.5413 202.85 37.968C203.319 38.3947 203.895 38.608 204.578 38.608C205.559 38.608 206.253 38.1973 206.658 37.376H208.626C208.359 38.1867 207.874 38.8533 207.17 39.376C206.477 39.888 205.613 40.144 204.578 40.144C203.735 40.144 202.978 39.9573 202.306 39.584C201.645 39.2 201.122 38.6667 200.738 37.984C200.365 37.2907 200.178 36.4907 200.178 35.584C200.178 34.6773 200.359 33.8827 200.722 33.2C201.095 32.5067 201.613 31.9733 202.274 31.6C202.946 31.2267 203.714 31.04 204.578 31.04C205.41 31.04 206.151 31.2213 206.802 31.584C207.453 31.9467 207.959 32.4587 208.322 33.12C208.685 33.7707 208.866 34.5227 208.866 35.376ZM206.962 34.8C206.951 34.128 206.711 33.5893 206.242 33.184C205.773 32.7787 205.191 32.576 204.498 32.576C203.869 32.576 203.33 32.7787 202.882 33.184C202.434 33.5787 202.167 34.1173 202.082 34.8H206.962ZM212.485 32.464C212.752 32.016 213.104 31.6693 213.541 31.424C213.989 31.168 214.517 31.04 215.125 31.04V32.928H214.661C213.946 32.928 213.402 33.1093 213.029 33.472C212.666 33.8347 212.485 34.464 212.485 35.36V40H210.661V31.184H212.485V32.464ZM216.194 35.584C216.194 34.6773 216.375 33.8827 216.738 33.2C217.111 32.5067 217.623 31.9733 218.274 31.6C218.924 31.2267 219.671 31.04 220.514 31.04C221.58 31.04 222.46 31.296 223.154 31.808C223.858 32.3093 224.332 33.0293 224.578 33.968H222.61C222.45 33.5307 222.194 33.1893 221.842 32.944C221.49 32.6987 221.047 32.576 220.514 32.576C219.767 32.576 219.17 32.8427 218.722 33.376C218.284 33.8987 218.066 34.6347 218.066 35.584C218.066 36.5333 218.284 37.2747 218.722 37.808C219.17 38.3413 219.767 38.608 220.514 38.608C221.57 38.608 222.268 38.144 222.61 37.216H224.578C224.322 38.112 223.842 38.8267 223.138 39.36C222.434 39.8827 221.559 40.144 220.514 40.144C219.671 40.144 218.924 39.9573 218.274 39.584C217.623 39.2 217.111 38.6667 216.738 37.984C216.375 37.2907 216.194 36.4907 216.194 35.584ZM227.323 30.016C226.993 30.016 226.715 29.904 226.491 29.68C226.267 29.456 226.155 29.1787 226.155 28.848C226.155 28.5173 226.267 28.24 226.491 28.016C226.715 27.792 226.993 27.68 227.323 27.68C227.643 27.68 227.915 27.792 228.139 28.016C228.363 28.24 228.475 28.5173 228.475 28.848C228.475 29.1787 228.363 29.456 228.139 29.68C227.915 29.904 227.643 30.016 227.323 30.016ZM228.219 31.184V40H226.395V31.184H228.219ZM233.814 40.144C233.121 40.144 232.497 40.0213 231.942 39.776C231.398 39.52 230.966 39.1787 230.646 38.752C230.326 38.3147 230.155 37.8293 230.134 37.296H232.022C232.054 37.6693 232.23 37.984 232.55 38.24C232.881 38.4853 233.291 38.608 233.782 38.608C234.294 38.608 234.689 38.512 234.966 38.32C235.254 38.1173 235.398 37.8613 235.398 37.552C235.398 37.2213 235.238 36.976 234.918 36.816C234.609 36.656 234.113 36.48 233.43 36.288C232.769 36.1067 232.23 35.9307 231.814 35.76C231.398 35.5893 231.035 35.328 230.726 34.976C230.427 34.624 230.278 34.16 230.278 33.584C230.278 33.1147 230.417 32.688 230.694 32.304C230.971 31.9093 231.366 31.6 231.878 31.376C232.401 31.152 232.998 31.04 233.67 31.04C234.673 31.04 235.478 31.296 236.086 31.808C236.705 32.3093 237.035 32.9973 237.078 33.872H235.254C235.222 33.4773 235.062 33.1627 234.774 32.928C234.486 32.6933 234.097 32.576 233.606 32.576C233.126 32.576 232.758 32.6667 232.502 32.848C232.246 33.0293 232.118 33.2693 232.118 33.568C232.118 33.8027 232.203 34 232.374 34.16C232.545 34.32 232.753 34.448 232.998 34.544C233.243 34.6293 233.606 34.7413 234.086 34.88C234.726 35.0507 235.249 35.2267 235.654 35.408C236.07 35.5787 236.427 35.8347 236.726 36.176C237.025 36.5173 237.179 36.9707 237.19 37.536C237.19 38.0373 237.051 38.4853 236.774 38.88C236.497 39.2747 236.102 39.584 235.59 39.808C235.089 40.032 234.497 40.144 233.814 40.144ZM247.241 35.376C247.241 35.7067 247.22 36.0053 247.177 36.272H240.441C240.494 36.976 240.756 37.5413 241.225 37.968C241.694 38.3947 242.27 38.608 242.953 38.608C243.934 38.608 244.628 38.1973 245.033 37.376H247.001C246.734 38.1867 246.249 38.8533 245.545 39.376C244.852 39.888 243.988 40.144 242.953 40.144C242.11 40.144 241.353 39.9573 240.681 39.584C240.02 39.2 239.497 38.6667 239.113 37.984C238.74 37.2907 238.553 36.4907 238.553 35.584C238.553 34.6773 238.734 33.8827 239.097 33.2C239.47 32.5067 239.988 31.9733 240.649 31.6C241.321 31.2267 242.089 31.04 242.953 31.04C243.785 31.04 244.526 31.2213 245.177 31.584C245.828 31.9467 246.334 32.4587 246.697 33.12C247.06 33.7707 247.241 34.5227 247.241 35.376ZM245.337 34.8C245.326 34.128 245.086 33.5893 244.617 33.184C244.148 32.7787 243.566 32.576 242.873 32.576C242.244 32.576 241.705 32.7787 241.257 33.184C240.809 33.5787 240.542 34.1173 240.457 34.8H245.337Z" fill="white"/>
</g>
<defs>
<filter id="filter0_f_103_1260" x="-24" y="20" width="362" height="131" filterUnits="userSpaceOnUse" color-interpolation-filters="sRGB">
<feFlood flood-opacity="0" result="BackgroundImageFix"/>
<feBlend mode="normal" in="SourceGraphic" in2="BackgroundImageFix" result="shape"/>
<feGaussianBlur stdDeviation="30" result="effect1_foregroundBlur_103_1260"/>
</filter>
</defs>
</svg>
