<svg width="28" height="28" viewBox="0 0 28 28" fill="none" xmlns="http://www.w3.org/2000/svg">
<path fill-rule="evenodd" clip-rule="evenodd" d="M10.7898 20.5898C10.5273 20.8523 10.1712 20.9997 9.79999 20.9997C9.42876 20.9997 9.07273 20.8523 8.81019 20.5898L3.21019 14.9898C2.94773 14.7273 2.80029 14.3712 2.80029 14C2.80029 13.6288 2.94773 13.2727 3.21019 13.0102L8.81019 7.41021C9.07424 7.15519 9.42788 7.01408 9.79496 7.01726C10.162 7.02045 10.5132 7.16769 10.7727 7.42726C11.0323 7.68683 11.1795 8.03797 11.1827 8.40505C11.1859 8.77212 11.0448 9.12577 10.7898 9.38981L7.57959 12.6H23.8C24.1713 12.6 24.5274 12.7475 24.7899 13.0101C25.0525 13.2726 25.2 13.6287 25.2 14C25.2 14.3713 25.0525 14.7274 24.7899 14.99C24.5274 15.2525 24.1713 15.4 23.8 15.4H7.57959L10.7898 18.6102C11.0523 18.8727 11.1997 19.2288 11.1997 19.6C11.1997 19.9712 11.0523 20.3273 10.7898 20.5898Z" fill="#27292E"/>
</svg>
