<svg width="88" height="80" viewBox="0 0 88 80" fill="none" xmlns="http://www.w3.org/2000/svg">
<path d="M80.0005 0H7.80536C3.49485 0 0.000488394 3.49436 0.000488394 7.80488V72.1951C0.000488394 76.5056 3.49485 80 7.80536 80H80.0005C84.311 80 87.8054 76.5056 87.8054 72.1951V7.80488C87.8054 3.49436 84.311 0 80.0005 0Z" fill="white" fill-opacity="0.5"/>
<path d="M80.0001 0.487814H7.80498C3.76387 0.487814 0.487905 3.76378 0.487905 7.80489V72.1951C0.487905 76.2362 3.76387 79.5122 7.80498 79.5122H80.0001C84.0412 79.5122 87.3172 76.2362 87.3172 72.1951V7.80489C87.3172 3.76378 84.0412 0.487814 80.0001 0.487814Z" stroke="#EEEEEE" stroke-width="0.975385"/>
</svg>
