<svg width="12" height="15" viewBox="0 0 12 15" fill="none" xmlns="http://www.w3.org/2000/svg">
<path d="M10.2426 11.1578L9.42471 12.039C8.82184 12.6835 8.03967 13.5122 7.07779 14.5252C6.47678 15.1583 5.52323 15.1582 4.92229 14.5251L2.51663 11.976C2.21429 11.6526 1.96121 11.3799 1.75736 11.1578C-0.585785 8.60533 -0.585785 4.46688 1.75736 1.91438C4.1005 -0.638125 7.89951 -0.638125 10.2426 1.91438C12.5858 4.46688 12.5858 8.60533 10.2426 11.1578ZM7.72283 6.74231C7.72283 5.70578 6.95148 4.86552 6 4.86552C5.04853 4.86552 4.27716 5.70578 4.27716 6.74231C4.27716 7.7788 5.04853 8.61907 6 8.61907C6.95148 8.61907 7.72283 7.7788 7.72283 6.74231Z" fill="#6D2B7D"/>
</svg>
