<svg width="25" height="26" viewBox="0 0 25 26" fill="none" xmlns="http://www.w3.org/2000/svg">
<path d="M17.7148 19.8451L23.3335 25.4638L25.0002 23.7972L1.66668 0.46363L0 2.13031L6.60749 8.7378V10.6067C6.60749 13.8611 9.24571 16.4993 12.5001 16.4993C13.0686 16.4993 13.6182 16.4188 14.1383 16.2685L15.9652 18.0955C14.9117 18.5839 13.7377 18.8563 12.5001 18.8563C8.34408 18.8563 4.90585 15.7831 4.334 11.7852H1.95815C2.50162 16.7015 6.40525 20.6051 11.3215 21.1487V25.9275H13.6786V21.1487C15.1329 20.9879 16.4985 20.5331 17.7148 19.8451ZM11.9729 14.1032C10.4424 13.8744 9.23241 12.6645 9.00358 11.1338L11.9729 14.1032ZM21.1912 16.6883L19.4913 14.9883C20.0904 14.0343 20.4997 12.9489 20.6662 11.7852H23.0421C22.8418 13.5961 22.1859 15.2695 21.1912 16.6883ZM17.763 13.26L15.938 11.4352C16.0019 11.1694 16.0356 10.892 16.0356 10.6067V5.8926C16.0356 3.93997 14.4528 2.35704 12.5001 2.35704C10.9748 2.35704 9.67513 3.32291 9.17929 4.67639L7.41548 2.91258C8.43905 1.16989 10.333 0 12.5001 0C15.7545 0 18.3927 2.63821 18.3927 5.8926V10.6067C18.3927 11.5612 18.1658 12.4626 17.763 13.26Z" fill="white"/>
</svg>
