<svg width="17" height="17" viewBox="0 0 17 17" fill="none" xmlns="http://www.w3.org/2000/svg">
<path fill-rule="evenodd" clip-rule="evenodd" d="M6.3799 2.12735C5.25186 2.12735 4.17003 2.57543 3.37239 3.37304C2.57474 4.17064 2.12663 5.25243 2.12663 6.38041C2.12663 7.50839 2.57474 8.59017 3.37239 9.38778C4.17003 10.1854 5.25186 10.6335 6.3799 10.6335C7.50793 10.6335 8.58977 10.1854 9.38741 9.38778C10.1851 8.59017 10.6332 7.50839 10.6332 6.38041C10.6332 5.25243 10.1851 4.17064 9.38741 3.37304C8.58977 2.57543 7.50793 2.12735 6.3799 2.12735ZM1.20645e-07 6.38041C-0.000128012 5.37637 0.236739 4.38648 0.691338 3.49124C1.14594 2.596 1.80543 1.8207 2.61618 1.22838C3.42693 0.636066 4.36604 0.243465 5.35714 0.0825087C6.34824 -0.0784475 7.36334 -0.00321371 8.31988 0.302091C9.27642 0.607396 10.1474 1.13415 10.862 1.83952C11.5765 2.54488 12.1145 3.40893 12.4321 4.36141C12.7498 5.31388 12.8381 6.32787 12.69 7.32092C12.5418 8.31397 12.1613 9.25803 11.5795 10.0763L16.7015 15.1981C16.8952 15.3986 17.0024 15.6672 17 15.946C16.9975 16.2248 16.8857 16.4914 16.6886 16.6886C16.4914 16.8857 16.2247 16.9975 15.9459 17C15.6671 17.0024 15.3985 16.8952 15.198 16.7015L10.077 11.5808C9.12258 12.2595 7.9997 12.6623 6.83146 12.7452C5.66323 12.8281 4.49471 12.5879 3.45397 12.0508C2.41323 11.5137 1.54041 10.7005 0.931171 9.7003C0.32193 8.70011 -0.000227604 7.55152 1.20645e-07 6.38041Z" fill="#ADADB7"/>
</svg>
