<svg width="16" height="16" viewBox="0 0 16 16" fill="none" xmlns="http://www.w3.org/2000/svg">
<path d="M12.9998 6.00002C13.609 6.00004 14.2037 5.81462 14.7049 5.46842C15.2062 5.12221 15.5901 4.63164 15.8058 4.06192C16.0214 3.4922 16.0585 2.87034 15.9121 2.27904C15.7657 1.68774 15.4427 1.15501 14.9862 0.751704C14.5297 0.348395 13.9612 0.0936158 13.3563 0.0212481C12.7515 -0.0511196 12.1389 0.0623531 11.6001 0.346576C11.0613 0.6308 10.6218 1.07231 10.34 1.61238C10.0583 2.15246 9.94759 2.76551 10.0227 3.37001L5.08259 5.84002C4.6588 5.43137 4.12415 5.15643 3.54523 5.04946C2.96632 4.94249 2.36872 5.0082 1.82688 5.23842C1.28504 5.46864 0.822912 5.85318 0.498063 6.34415C0.173213 6.83512 0 7.41082 0 7.99952C0 8.58823 0.173213 9.16392 0.498063 9.65489C0.822912 10.1459 1.28504 10.5304 1.82688 10.7606C2.36872 10.9908 2.96632 11.0566 3.54523 10.9496C4.12415 10.8426 4.6588 10.5677 5.08259 10.159L10.0227 12.629C9.93522 13.3313 10.0988 14.0418 10.4845 14.6352C10.8702 15.2285 11.4533 15.6663 12.1306 15.8713C12.808 16.0764 13.536 16.0353 14.186 15.7555C14.836 15.4757 15.3662 14.9751 15.6828 14.3422C15.9995 13.7093 16.0822 12.9849 15.9163 12.2969C15.7505 11.609 15.3468 11.0018 14.7765 10.5827C14.2063 10.1636 13.5063 9.95953 12.8001 10.0066C12.094 10.0537 11.4273 10.3489 10.9177 10.84L5.97761 8.37002C6.00788 8.12428 6.00788 7.87576 5.97761 7.63002L10.9177 5.16002C11.4558 5.68002 12.1898 6.00002 12.9998 6.00002Z" fill="#BBBBBB"/>
</svg>
