<svg width="39" height="12" viewBox="0 0 39 12" fill="none" xmlns="http://www.w3.org/2000/svg">
<path d="M2.80869 11.048H4.73593V0.268917H2.81616L0 2.24845V4.06364L2.6817 2.16628H2.80869V11.048Z" fill="black"/>
<path d="M11.3877 0C9.04961 0 7.38382 1.59856 7.38382 3.78725V3.80219C7.38382 5.84895 8.83298 7.35788 10.9022 7.35788C12.3812 7.35788 13.3224 6.60342 13.7183 5.75185H13.8677C13.8677 5.83401 13.8602 5.91618 13.8602 5.99835C13.7781 8.06005 13.0535 9.73332 11.3429 9.73332C10.3942 9.73332 9.72937 9.2403 9.44552 8.48584L9.42311 8.41114H7.52574L7.54068 8.49331C7.8843 10.1442 9.36335 11.3169 11.3429 11.3169C14.0545 11.3169 15.6904 9.1656 15.6904 5.53522V5.52028C15.6904 1.63591 13.6884 0 11.3877 0ZM11.3802 5.87883C10.1552 5.87883 9.26624 4.98244 9.26624 3.73496V3.72002C9.26624 2.51737 10.2149 1.56869 11.4026 1.56869C12.5978 1.56869 13.5316 2.53231 13.5316 3.76484V3.77978C13.5316 4.99738 12.5978 5.87883 11.3802 5.87883Z" fill="black"/>
<path d="M18.9134 4.06364C19.6007 4.06364 20.1012 3.54075 20.1012 2.88339C20.1012 2.21857 19.6007 1.70314 18.9134 1.70314C18.2337 1.70314 17.7257 2.21857 17.7257 2.88339C17.7257 3.54075 18.2337 4.06364 18.9134 4.06364ZM18.9134 9.60633C19.6007 9.60633 20.1012 9.0909 20.1012 8.42608C20.1012 7.76126 19.6007 7.24583 18.9134 7.24583C18.2337 7.24583 17.7257 7.76126 17.7257 8.42608C17.7257 9.0909 18.2337 9.60633 18.9134 9.60633Z" fill="black"/>
<path d="M22.4502 11.048H29.9351V9.44946H25.0572V9.29259L27.2161 7.20101C29.1806 5.31112 29.7708 4.34003 29.7708 3.11496V3.09255C29.7708 1.27736 28.2618 0 26.1628 0C23.9143 0 22.3457 1.40435 22.3457 3.41376L22.3531 3.43617L24.1459 3.44364L24.1534 3.41376C24.1534 2.30074 24.9228 1.54628 26.0657 1.54628C27.1862 1.54628 27.8659 2.26339 27.8659 3.25689V3.2793C27.8659 4.10846 27.4551 4.65377 25.991 6.13281L22.4502 9.74826V11.048Z" fill="black"/>
<path d="M32.3738 11.048H34.3907L38.9997 1.87495V0.268917H31.4999V1.84507H37.0575V1.96459L32.3738 11.048Z" fill="black"/>
</svg>
