<svg width="14" height="14" viewBox="0 0 14 14" fill="none" xmlns="http://www.w3.org/2000/svg">
<path d="M7 13.5001C3.41589 13.5001 0.5 10.5842 0.5 7.00006C0.5 3.41595 3.41589 0.500061 7 0.500061C10.5841 0.500061 13.5 3.41595 13.5 7.00006C13.5 10.5842 10.5841 13.5001 7 13.5001Z" fill="#77838F"/>
<path d="M7 1C3.69159 1 1 3.69159 1 7C1 10.3084 3.69159 13 7 13C10.3084 13 13 10.3084 13 7C13 3.69159 10.3084 1 7 1ZM7 0C10.866 0 14 3.13401 14 7C14 10.866 10.866 14 7 14C3.13401 14 0 10.866 0 7C0 3.13401 3.13401 0 7 0Z" fill="#F6F5EE"/>
</svg>
