<svg width="22" height="28" viewBox="0 0 22 28" fill="none" xmlns="http://www.w3.org/2000/svg">
<path fill-rule="evenodd" clip-rule="evenodd" d="M15.5356 13.2741C15.5356 14.7484 14.869 16.0696 13.8217 16.9531C18.198 18.2937 21.3895 22.3715 21.3895 27.1811V28H0V27.1812C0 22.3561 3.21207 18.2679 7.60998 16.9406C6.57119 16.0572 5.91095 14.7415 5.91095 13.2742V10.9516L5.54739 8.41952C5.32809 7.16538 5.4653 5.8794 5.94453 4.69963C6.42551 3.51559 7.22788 2.49506 8.26509 1.74841L10.6939 0L13.1494 1.74918C14.1952 2.49413 15.0049 3.51597 15.4911 4.70438C15.9755 5.88848 16.115 7.17976 15.8946 8.43976L15.5356 10.9449V13.2741ZM7.24764 8.73681L7.44008 10.0772H14.0055L14.1979 8.73681H7.24764ZM14.353 7.09898H11.5147V2.59601L12.1987 3.08322C13.5115 4.01838 14.2965 5.52092 14.353 7.09898ZM9.87794 2.6058L9.22245 3.0777C7.91733 4.01723 7.13946 5.52267 7.08871 7.09898H9.87794V2.6058ZM7.54862 11.715H13.8975L13.8976 13.2741C13.8976 15.0246 12.4736 16.4486 10.7231 16.4486C8.97269 16.4486 7.54862 15.0246 7.54862 13.2741V11.715ZM14.2979 26.3622V18.8727C13.1929 18.3916 11.9742 18.1241 10.6942 18.1241C9.4141 18.1241 8.19545 18.3916 7.09048 18.8727V26.3622H14.2979ZM5.45318 19.7994V26.3622H1.67449C1.91785 23.6581 3.35504 21.2935 5.45318 19.7994ZM15.9363 19.7994V26.3622H19.715C19.4716 23.6581 18.0344 21.2935 15.9363 19.7994Z" fill="#77838F"/>
<path d="M9.87585 19.6307V20.8716H8.93205V22.5094H9.87585V24.95H11.5136V22.5094H12.4575V20.8716H11.5136V19.6307H9.87585Z" fill="#77838F"/>
</svg>
