<svg width="6" height="6" viewBox="0 0 6 6" fill="none" xmlns="http://www.w3.org/2000/svg">
<path d="M4.41548 0.377936L4.19425 0.192304C3.82956 -0.113682 3.30253 -0.0473453 3.01415 0.340837C2.75631 0.687891 2.77233 1.18399 3.0519 1.51118L4.28553 2.95487C4.35533 3.03657 4.47559 3.03657 4.54542 2.95487L5.77912 1.51101C6.05863 1.1839 6.07465 0.687948 5.81698 0.340924C5.52871 -0.047304 5.00167 -0.113758 4.63698 0.192134L4.41548 0.377936ZM4.90159 4.17952L4.61124 3.353C4.68287 3.32247 4.74946 3.27457 4.80528 3.20922L4.89536 3.10381L5.22557 4.04384C5.29917 4.25587 5.31167 4.48663 5.26146 4.70631C5.21124 4.92599 5.10059 5.12452 4.94385 5.27621L4.51422 5.69077C4.29898 5.89496 4.02001 6.00524 3.73244 5.99981C3.55118 5.99883 3.37183 5.96046 3.2042 5.88675C2.43522 5.56814 1.61648 5.40951 0.791936 5.41943C0.715406 5.42176 0.639699 5.40201 0.572772 5.36222C0.505845 5.32246 0.450173 5.26408 0.411609 5.1933C0.3807 5.13602 0.364427 5.07101 0.364427 5.00487C0.364427 4.93872 0.3807 4.87371 0.411609 4.81643C0.525474 4.64646 0.669689 4.50234 0.835909 4.39237C1.00213 4.2824 1.18707 4.20876 1.38003 4.17575L0.161579 2.87554C0.110362 2.82092 0.0697266 2.75602 0.0419979 2.68455C0.0142728 2.61309 0 2.53647 0 2.45909C0 2.38172 0.0142728 2.3051 0.0419979 2.23364C0.0697266 2.16217 0.110362 2.09727 0.161579 2.04265C0.209722 1.99238 0.265743 1.95156 0.327092 1.92205C0.242296 1.82601 0.190202 1.7022 0.179215 1.57059C0.168231 1.43898 0.198992 1.30725 0.266535 1.19664C0.334082 1.08603 0.434474 1.003 0.551516 0.960939C0.668562 0.918876 0.795433 0.920233 0.911668 0.964794C0.936161 0.874518 0.982293 0.792665 1.04549 0.727365C1.09622 0.672673 1.15657 0.629261 1.22305 0.599639C1.28954 0.570017 1.36084 0.554765 1.43286 0.554765C1.50487 0.554765 1.57617 0.570017 1.64266 0.599639C1.70914 0.629261 1.76949 0.672673 1.82023 0.727365C1.84776 0.660564 1.88589 0.599364 1.93292 0.546466C2.03689 0.437591 2.17658 0.376621 2.32205 0.376621C2.40565 0.376621 2.48734 0.396757 2.56145 0.434557C2.51616 0.5579 2.48956 0.686975 2.48148 0.816962L2.47876 0.814045C2.43953 0.772066 2.38633 0.748481 2.33085 0.748481C2.30338 0.748481 2.27618 0.754273 2.25081 0.765523C2.22543 0.776773 2.20237 0.793261 2.18295 0.814045C2.16352 0.834834 2.14811 0.859511 2.1376 0.886669C2.12709 0.91383 2.12168 0.942936 2.12168 0.972332C2.12168 1.0317 2.14372 1.08864 2.18295 1.13062L2.42945 1.37559L2.89547 1.88658L3.33619 2.40233C3.34007 2.41773 3.34207 2.43364 3.34207 2.44967C3.34207 2.47439 3.33732 2.49885 3.32816 2.52154C3.31897 2.54423 3.30555 2.56466 3.28872 2.58158C3.27291 2.5996 3.25382 2.61397 3.23262 2.62379C3.21142 2.63362 3.18857 2.63868 3.16547 2.63868C3.14237 2.63868 3.11951 2.63362 3.09831 2.62379C3.07711 2.61397 3.05803 2.5996 3.04221 2.58158L2.16182 1.64316L1.91531 1.37935L1.56315 0.979869C1.52517 0.941161 1.47474 0.91957 1.42229 0.91957C1.36985 0.91957 1.31941 0.941161 1.28143 0.979869C1.24444 1.02006 1.22371 1.07421 1.22371 1.13062C1.22371 1.18703 1.24444 1.24118 1.28143 1.28137L2.24986 2.31777C2.28254 2.35275 2.30091 2.4002 2.30091 2.44967C2.30091 2.49915 2.28254 2.5466 2.24986 2.58158C2.21716 2.61656 2.17283 2.63622 2.1266 2.63622C2.08037 2.63622 2.03603 2.61656 2.00335 2.58158L1.34834 1.88436L0.855324 1.35674C0.818368 1.31739 0.768355 1.2953 0.716223 1.2953C0.66409 1.2953 0.614077 1.31739 0.577121 1.35674C0.540131 1.39693 0.519396 1.45108 0.519396 1.50749C0.519396 1.5639 0.540131 1.61805 0.577121 1.65824L0.953927 2.05772L1.72162 2.88307C1.75431 2.91806 1.77268 2.96551 1.77268 3.01498C1.77268 3.06446 1.75431 3.11191 1.72162 3.14689C1.68893 3.18186 1.6446 3.20153 1.59837 3.20153C1.55214 3.20153 1.5078 3.18186 1.47512 3.14689L1.07014 2.71725L0.703897 2.3253C0.666942 2.28595 0.616929 2.26386 0.564796 2.26386C0.512663 2.26386 0.46265 2.28595 0.425695 2.3253C0.406598 2.3439 0.391392 2.36661 0.381074 2.39194C0.370755 2.41728 0.365561 2.44466 0.365829 2.47228C0.363934 2.50292 0.368311 2.53363 0.378651 2.56227C0.38899 2.59091 0.405045 2.61679 0.425695 2.63811L1.90122 4.20213C1.92556 4.2287 1.942 4.26239 1.94847 4.29895C1.95495 4.33547 1.95117 4.37327 1.93761 4.40752C1.92406 4.44178 1.90133 4.47099 1.87229 4.49145C1.84325 4.51188 1.80921 4.5227 1.77445 4.52247C1.77445 4.52247 1.01731 4.52247 0.721505 5.03125C0.721505 5.04632 0.749677 5.0727 0.791936 5.0727C0.808315 5.07067 0.824859 5.07067 0.841237 5.0727C1.69593 5.07153 2.5435 5.2389 3.34154 5.56641C3.49269 5.64253 3.66091 5.67125 3.82671 5.64924C3.9925 5.62723 4.14907 5.5554 4.27828 5.44204L4.71847 5.00864C4.82355 4.90631 4.89729 4.77241 4.92997 4.62441C4.96265 4.47645 4.95276 4.32137 4.90159 4.17952ZM2.73347 4.50234C2.87336 4.42769 3.09944 4.38453 3.33028 4.42573C3.55703 4.4662 3.77339 4.58488 3.91704 4.81545C3.97099 4.90202 4.0803 4.92542 4.16122 4.86768C4.24211 4.80995 4.26398 4.69297 4.21003 4.60636C4.00152 4.27162 3.68965 4.1078 3.38817 4.05398C3.09078 4.00095 2.78861 4.05183 2.57636 4.16504C2.48933 4.21147 2.45395 4.32461 2.49733 4.41777C2.54071 4.5109 2.64644 4.54878 2.73347 4.50234Z" fill="#6D2B7D"/>
</svg>
