<svg width="86" height="86" viewBox="0 0 86 86" fill="none" xmlns="http://www.w3.org/2000/svg">
<g filter="url(#filter0_d_13_270)">
<path d="M53 56.5H33C28.8645 56.5 25.5 53.1355 25.5 49V29C25.5 24.8645 28.8645 21.5 33 21.5H53C57.1355 21.5 60.5 24.8645 60.5 29V49C60.5 53.1355 57.1355 56.5 53 56.5Z" fill="white"/>
<path d="M33 22C29.1402 22 26 25.1402 26 29V49C26 52.8598 29.1402 56 33 56H53C56.8598 56 60 52.8598 60 49V29C60 25.1402 56.8598 22 53 22H33ZM33 21H53C57.4183 21 61 24.5817 61 29V49C61 53.4183 57.4183 57 53 57H33C28.5817 57 25 53.4183 25 49V29C25 24.5817 28.5817 21 33 21Z" fill="#EEEEEE"/>
</g>
<path fill-rule="evenodd" clip-rule="evenodd" d="M40.293 43.707C40.1055 43.5195 40.0002 43.2652 40.0002 43C40.0002 42.7348 40.1055 42.4805 40.293 42.293L43.586 39L40.293 35.707C40.1975 35.6148 40.1213 35.5044 40.0689 35.3824C40.0165 35.2604 39.9889 35.1292 39.9877 34.9964C39.9866 34.8636 40.0119 34.7319 40.0622 34.6091C40.1124 34.4862 40.1867 34.3745 40.2806 34.2806C40.3745 34.1867 40.4861 34.1125 40.609 34.0622C40.7319 34.0119 40.8636 33.9866 40.9964 33.9878C41.1292 33.9889 41.2604 34.0165 41.3824 34.0689C41.5044 34.1213 41.6147 34.1975 41.707 34.293L45.707 38.293C45.8945 38.4805 45.9998 38.7348 45.9998 39C45.9998 39.2652 45.8945 39.5195 45.707 39.707L41.707 43.707C41.5195 43.8945 41.2652 43.9998 41 43.9998C40.7348 43.9998 40.4805 43.8945 40.293 43.707Z" fill="#919191"/>
<defs>
<filter id="filter0_d_13_270" x="0" y="0" width="86" height="86" filterUnits="userSpaceOnUse" color-interpolation-filters="sRGB">
<feFlood flood-opacity="0" result="BackgroundImageFix"/>
<feColorMatrix in="SourceAlpha" type="matrix" values="0 0 0 0 0 0 0 0 0 0 0 0 0 0 0 0 0 0 127 0" result="hardAlpha"/>
<feOffset dy="4"/>
<feGaussianBlur stdDeviation="12.5"/>
<feColorMatrix type="matrix" values="0 0 0 0 0.466667 0 0 0 0 0.47451 0 0 0 0 0.698039 0 0 0 0.02 0"/>
<feBlend mode="normal" in2="BackgroundImageFix" result="effect1_dropShadow_13_270"/>
<feBlend mode="normal" in="SourceGraphic" in2="effect1_dropShadow_13_270" result="shape"/>
</filter>
</defs>
</svg>
