<svg width="18" height="16" viewBox="0 0 18 16" fill="none" xmlns="http://www.w3.org/2000/svg">
<path d="M14.2146 10.2569C13.6534 10.2625 13.1069 10.4374 12.6467 10.7587C12.1865 11.08 11.834 11.5328 11.6354 12.0577L5.49457 8.66413C5.59777 8.22862 5.59777 7.77502 5.49457 7.33951L11.6354 3.94793C11.8728 4.58625 12.3374 5.11452 12.9402 5.4315C13.5429 5.74849 14.2415 5.83189 14.9019 5.66573C15.5647 5.48227 16.1398 5.06723 16.5227 4.49597C16.9056 3.92471 17.071 3.23509 16.9889 2.55228C16.9337 1.86799 16.6269 1.22842 16.1277 0.757162C15.6285 0.285903 14.9723 0.0163991 14.286 0.000724173C13.5996 -0.0149508 12.9318 0.224315 12.4116 0.672292C11.8914 1.12027 11.5557 1.74516 11.4693 2.42622L4.85327 6.07993C4.485 5.6496 3.99171 5.34482 3.4421 5.208C2.89248 5.07118 2.31388 5.10913 1.78684 5.31657C1.25751 5.53808 0.805472 5.91113 0.487548 6.38882C0.169623 6.8665 0 7.42751 0 8.00132C0 8.57513 0.169623 9.13614 0.487548 9.61382C0.805472 10.0915 1.25751 10.4646 1.78684 10.6861C2.31388 10.8935 2.89248 10.9315 3.4421 10.7946C3.99171 10.6578 4.485 10.353 4.85327 9.92271L11.4693 13.5784C11.5673 14.2945 11.9383 14.9451 12.5047 15.394C13.0712 15.843 13.7892 16.0556 14.5088 15.9875C15.2228 15.8886 15.8739 15.5255 16.3333 14.97C16.7927 14.4144 17.0271 13.7068 16.9901 12.9868C16.9532 12.2669 16.6476 11.5869 16.1337 11.0813C15.6199 10.5757 14.9351 10.2812 14.2146 10.2559V10.2569ZM14.2146 1.42076C14.5042 1.41019 14.7904 1.48642 15.0364 1.63968C15.2824 1.79294 15.4769 2.01623 15.5951 2.28087C15.7132 2.54551 15.7495 2.83942 15.6994 3.12486C15.6493 3.41031 15.515 3.67426 15.3138 3.88282C15.1125 4.09138 14.8536 4.23503 14.5701 4.29533C14.2866 4.35563 13.9916 4.32982 13.7229 4.22122C13.4542 4.11261 13.2241 3.92617 13.0622 3.68584C12.9002 3.4455 12.8138 3.16225 12.814 2.87243C12.8081 2.49444 12.9521 2.1295 13.2146 1.85745C13.4771 1.5854 13.8367 1.42838 14.2146 1.42076ZM2.78931 9.4545C2.49996 9.46486 2.21412 9.38853 1.96846 9.2353C1.7228 9.08207 1.52854 8.85892 1.4106 8.5945C1.29265 8.33008 1.25642 8.03645 1.30654 7.75129C1.35666 7.46613 1.49084 7.20245 1.69188 6.99409C1.89291 6.78573 2.15162 6.6422 2.43481 6.58191C2.718 6.52163 3.01274 6.54734 3.2812 6.65575C3.54967 6.76416 3.77963 6.95032 3.94155 7.19034C4.10347 7.43036 4.18997 7.71329 4.18996 8.00282C4.19586 8.38081 4.0518 8.74575 3.78931 9.0178C3.52682 9.28986 3.16727 9.44687 2.78931 9.4545ZM14.2146 14.5829C13.9254 14.592 13.6401 14.5147 13.3952 14.3606C13.1503 14.2066 12.9569 13.9829 12.84 13.7183C12.723 13.4537 12.6877 13.1601 12.7386 12.8753C12.7895 12.5905 12.9243 12.3274 13.1257 12.1197C13.3271 11.912 13.586 11.7691 13.8691 11.7095C14.1522 11.6498 14.4467 11.6761 14.7148 11.7848C14.9829 11.8936 15.2124 12.08 15.3739 12.32C15.5354 12.5601 15.6215 12.8429 15.6213 13.1322C15.6269 13.511 15.4819 13.8766 15.2181 14.1486C14.9544 14.4206 14.5935 14.5768 14.2146 14.5829Z" fill="#0F393A"/>
</svg>
