<svg width="6" height="5" viewBox="0 0 6 5" fill="none" xmlns="http://www.w3.org/2000/svg">
<path d="M3.525 0C4.06347 0 4.5 0.436521 4.5 0.975V1.0269L5.65917 0.3315C5.80914 0.241458 6 0.349479 6 0.5244V3.975C6 4.1499 5.8092 4.25793 5.65923 4.16793L4.5 3.4725V3.525C4.5 4.06347 4.06347 4.5 3.525 4.5H0.975C0.436521 4.5 0 4.06347 0 3.525V0.975C0 0.436521 0.436521 0 0.975 0H3.525ZM3.525 0.45H0.975C0.68505 0.45 0.45 0.68505 0.45 0.975V3.525C0.45 3.81495 0.68505 4.05 0.975 4.05H3.525C3.81495 4.05 4.05 3.81495 4.05 3.525V0.975C4.05 0.68505 3.81495 0.45 3.525 0.45ZM5.55 0.92193L4.5 1.55235V2.94762L5.55 3.57762V0.92193Z" fill="#6D2B7D"/>
</svg>
