<svg width="17" height="16" viewBox="0 0 17 16" fill="none" xmlns="http://www.w3.org/2000/svg">
<path d="M8.5 15.9997C8.46657 16.0002 8.43313 15.9982 8.4 15.9937C8.23181 15.9681 8.07919 15.8808 7.97201 15.7487L5.33007 12.7487H0.689171C0.502269 12.7443 0.324767 12.6659 0.195603 12.5307C0.0664387 12.3955 -0.00383919 12.2147 0.000186116 12.0277V0.721985C-0.00410792 0.534901 0.0660503 0.353767 0.195243 0.218386C0.324435 0.0830059 0.502092 0.00445675 0.689171 0H16.3108C16.4979 0.00445675 16.6756 0.0830059 16.8048 0.218386C16.934 0.353767 17.0041 0.534901 16.9998 0.721985V12.0287C17.0041 12.2158 16.934 12.397 16.8048 12.5323C16.6756 12.6677 16.4979 12.7463 16.3108 12.7507H11.6649L9.00699 15.7677C8.9438 15.8401 8.86591 15.8983 8.77849 15.9383C8.69107 15.9783 8.59614 15.9992 8.5 15.9997ZM1.37816 11.3058H5.63706C5.73319 11.3063 5.8281 11.3272 5.91551 11.3672C6.00292 11.4072 6.08082 11.4654 6.14405 11.5378L8.5 14.2147L10.856 11.5388C10.9192 11.4664 10.9971 11.4082 11.0845 11.3682C11.1719 11.3282 11.2668 11.3073 11.3629 11.3068H15.6218V1.44297H1.37816V11.3058Z" fill="#0F393A"/>
<path d="M5.55507 7.19801C5.96817 7.19801 6.30305 6.86357 6.30305 6.45102C6.30305 6.03848 5.96817 5.70404 5.55507 5.70404C5.14197 5.70404 4.80709 6.03848 4.80709 6.45102C4.80709 6.86357 5.14197 7.19801 5.55507 7.19801Z" fill="#0F393A"/>
<path d="M8.50001 7.19801C8.91311 7.19801 9.248 6.86357 9.248 6.45102C9.248 6.03848 8.91311 5.70404 8.50001 5.70404C8.08691 5.70404 7.75203 6.03848 7.75203 6.45102C7.75203 6.86357 8.08691 7.19801 8.50001 7.19801Z" fill="#0F393A"/>
<path d="M11.444 7.19801C11.8571 7.19801 12.192 6.86357 12.192 6.45102C12.192 6.03848 11.8571 5.70404 11.444 5.70404C11.0309 5.70404 10.696 6.03848 10.696 6.45102C10.696 6.86357 11.0309 7.19801 11.444 7.19801Z" fill="#0F393A"/>
</svg>
