<svg width="18" height="18" viewBox="0 0 18 18" fill="none" xmlns="http://www.w3.org/2000/svg">
<path d="M12.3194 13.3793L15.8951 16.955L16.9558 15.8943L2.10656 1.04505L1.0459 2.10571L5.25085 6.31066V7.5C5.25085 9.57105 6.92978 11.25 9.00083 11.25C9.36263 11.25 9.71243 11.1988 10.0434 11.1032L11.206 12.2658C10.5356 12.5766 9.78848 12.75 9.00083 12.75C6.356 12.75 4.16794 10.7942 3.80402 8.25H2.29205C2.63791 11.3787 5.12214 13.8629 8.25083 14.2088V17.25H9.75083V14.2088C10.6763 14.1065 11.5454 13.8171 12.3194 13.3793ZM8.66535 9.72517C7.69133 9.57952 6.92132 8.80958 6.7757 7.83547L8.66535 9.72517ZM14.5318 11.3703L13.45 10.2884C13.8313 9.6813 14.0918 8.99055 14.1977 8.25H15.7097C15.5822 9.40245 15.1648 10.4674 14.5318 11.3703ZM12.3501 9.18855L11.1887 8.02725C11.2294 7.85813 11.2508 7.68157 11.2508 7.5V4.5C11.2508 3.25736 10.2435 2.25 9.00083 2.25C8.03018 2.25 7.20306 2.86467 6.88751 3.72602L5.76504 2.60354C6.41643 1.49451 7.62173 0.75 9.00083 0.75C11.0719 0.75 12.7508 2.42894 12.7508 4.5V7.5C12.7508 8.10743 12.6065 8.6811 12.3501 9.18855Z" fill="#2D4465"/>
</svg>
