<svg width="77" height="45" viewBox="0 0 77 45" fill="none" xmlns="http://www.w3.org/2000/svg">
<path fill-rule="evenodd" clip-rule="evenodd" d="M77 14.1719C77 13.7525 76.8307 13.3502 76.5294 13.0536C76.2281 12.757 75.8195 12.5904 75.3933 12.5904H56.1135C55.6874 12.5904 55.2788 12.757 54.9775 13.0536C54.6762 13.3502 54.5069 13.7525 54.5069 14.1719C54.5069 14.5914 54.6762 14.9936 54.9775 15.2902C55.2788 15.5868 55.6874 15.7535 56.1135 15.7535H75.3933C75.8195 15.7535 76.2281 15.5868 76.5294 15.2902C76.8307 14.9936 77 14.5914 77 14.1719ZM77 22.0797C77 21.6602 76.8307 21.2579 76.5294 20.9613C76.2281 20.6647 75.8195 20.4981 75.3933 20.4981H65.7534C65.3273 20.4981 64.9187 20.6647 64.6174 20.9613C64.3161 21.2579 64.1468 21.6602 64.1468 22.0797C64.1468 22.4991 64.3161 22.9014 64.6174 23.198C64.9187 23.4946 65.3273 23.6612 65.7534 23.6612H75.3933C75.8195 23.6612 76.2281 23.4946 76.5294 23.198C76.8307 22.9014 77 22.4991 77 22.0797ZM77 29.9874C77 29.5679 76.8307 29.1657 76.5294 28.8691C76.2281 28.5725 75.8195 28.4058 75.3933 28.4058H56.1135C55.6874 28.4058 55.2788 28.5725 54.9775 28.8691C54.6762 29.1657 54.5069 29.5679 54.5069 29.9874C54.5069 30.4068 54.6762 30.8091 54.9775 31.1057C55.2788 31.4023 55.6874 31.5689 56.1135 31.5689H75.3933C75.8195 31.5689 76.2281 31.4023 76.5294 31.1057C76.8307 30.8091 77 30.4068 77 29.9874Z" fill="white"/>
<circle cx="22.4376" cy="22.4376" r="21.5381" stroke="#FC8E43" stroke-width="1.79906"/>
<circle cx="22.1287" cy="22.1287" r="18.5052" fill="white"/>
</svg>
