<svg width="16" height="16" viewBox="0 0 16 16" fill="none" xmlns="http://www.w3.org/2000/svg">
<path d="M15.9999 8.18399C15.9999 7.64019 15.955 7.09345 15.859 6.55847H8.16113V9.63902H12.5693C12.3864 10.6326 11.7987 11.5115 10.938 12.07V14.0688H13.5679C15.1123 12.6755 15.9999 10.6179 15.9999 8.18399Z" fill="#4285F4"/>
<path d="M8.1612 16C10.3623 16 12.2186 15.2916 13.571 14.0688L10.9411 12.07C10.2094 12.5579 9.26475 12.8342 8.1642 12.8342C6.03506 12.8342 4.2298 11.4262 3.58206 9.5332H0.868164V11.5938C2.2536 14.2951 5.07545 16 8.1612 16Z" fill="#34A853"/>
<path d="M3.57905 9.5332C3.23719 8.53967 3.23719 7.46382 3.57905 6.47029V4.40973H0.868147C-0.289382 6.67017 -0.289382 9.33332 0.868147 11.5938L3.57905 9.5332Z" fill="#FBBC04"/>
<path d="M8.1612 3.16633C9.32473 3.1487 10.4493 3.57786 11.2919 4.36563L13.622 2.08167C12.1466 0.723645 10.1884 -0.0229766 8.1612 0.000539093C5.07545 0.000539093 2.2536 1.70542 0.868164 4.40972L3.57906 6.47028C4.2238 4.57433 6.03207 3.16633 8.1612 3.16633Z" fill="#FE2C25"/>
</svg>
