<svg width="21" height="25" viewBox="0 0 21 25" fill="none" xmlns="http://www.w3.org/2000/svg">
<path fill-rule="evenodd" clip-rule="evenodd" d="M0 2.23257C0 1.00151 1.00156 0 2.23257 0H20.5131V22.0703H19.0483V23.5352H20.5131V25H2.23257C1.00151 25 0 23.9985 0 22.7674V2.23257ZM2.23199 1.46485C1.80865 1.46485 1.46426 1.80923 1.46426 2.23257V20.6055H2.92911V1.46485H2.23199ZM17.5829 23.5352H2.23199C1.80865 23.5352 1.46426 23.1908 1.46426 22.7674V22.0703H17.5829V23.5352ZM4.39407 1.46485V20.6055H19.0478V1.46485H4.39407Z" fill="#77838F"/>
<path d="M12.4524 5.99311H10.9876V8.24346H9.03443V9.7083H10.9876V15.8649H12.4524V9.7083H14.4055V8.24346H12.4524V5.99311Z" fill="#77838F"/>
<path fill-rule="evenodd" clip-rule="evenodd" d="M15.7406 3.1547V3.88712C15.7406 4.49762 16.2373 4.9943 16.8478 4.9943H17.5802V16.9401H16.8478C16.2373 16.9401 15.7406 17.4368 15.7406 18.0473V18.7797H7.70098V18.0473C7.70098 17.4368 7.2043 16.9401 6.59385 16.9401H5.86143V4.99425H6.59385C7.20435 4.99425 7.70098 4.49757 7.70098 3.88712V3.1547H15.7406ZM14.3814 17.3149C14.6285 16.4846 15.2845 15.8286 16.1148 15.5816H16.1147V6.35289C15.2843 6.10582 14.6285 5.44996 14.3814 4.61954H9.05902C8.81195 5.44986 8.15594 6.10577 7.32567 6.35289V15.5816C8.15589 15.8287 8.81195 16.4847 9.05902 17.3149H14.3814Z" fill="#77838F"/>
</svg>
