<svg width="24" height="21" viewBox="0 0 24 21" fill="none" xmlns="http://www.w3.org/2000/svg">
<path d="M12.0222 20.5869C11.7644 20.5871 11.5172 20.4849 11.3347 20.3028L1.89698 10.857C1.29977 10.2706 0.824642 9.57174 0.499056 8.8007C0.173471 8.02966 0.00387514 7.20175 6.56367e-05 6.3648C-0.00374387 5.52784 0.158308 4.69843 0.476861 3.92446C0.795415 3.15048 1.26416 2.4473 1.85601 1.85551C2.44787 1.26372 3.15111 0.795055 3.92512 0.476589C4.69912 0.158123 5.52856 -0.00383501 6.36551 6.89315e-05C7.20247 0.00397287 8.03036 0.173662 8.80136 0.499335C9.57236 0.825007 10.2712 1.30021 10.8575 1.89749L12.0212 3.06217L13.1828 1.89749C13.7712 1.30907 14.4697 0.842295 15.2384 0.523818C16.0072 0.20534 16.8311 0.0413977 17.6632 0.0413508C18.4953 0.0413038 19.3193 0.205153 20.0881 0.523544C20.8569 0.841935 21.5554 1.30863 22.1439 1.89699C22.7323 2.48534 23.199 3.18384 23.5175 3.95259C23.836 4.72134 23.9999 5.54529 24 6.3774C24 7.20951 23.8362 8.03348 23.5178 8.80226C23.1994 9.57105 22.7327 10.2696 22.1444 10.858L12.7066 20.2988C12.5256 20.4816 12.2795 20.5852 12.0222 20.5869ZM6.37775 1.98444C5.5091 1.98499 4.66011 2.24307 3.9381 2.72605C3.2161 3.20903 2.65349 3.89522 2.32141 4.69789C1.98932 5.50056 1.90267 6.38367 2.0724 7.23558C2.24213 8.08749 2.66063 8.86996 3.27498 9.48407L12.0262 18.2383L20.7785 9.48407C21.6021 8.66011 22.0648 7.54278 22.0648 6.37776C22.0648 5.21273 21.6021 4.0954 20.7785 3.27145C19.9416 2.47264 18.8291 2.02695 17.6722 2.02695C16.5152 2.02695 15.4028 2.47264 14.5659 3.27145L12.7107 5.11855C12.5249 5.29387 12.2791 5.39154 12.0237 5.39154C11.7683 5.39154 11.5225 5.29387 11.3367 5.11855L9.48457 3.26639C9.07716 2.85795 8.59281 2.53434 8.05954 2.3143C7.52626 2.09425 6.95464 1.98214 6.37775 1.98444Z" fill="#585858"/>
</svg>
