<svg width="28" height="28" viewBox="0 0 28 28" fill="none" xmlns="http://www.w3.org/2000/svg">
<g clip-path="url(#clip0_1_388)">
<path d="M2.92894 17.7783L0.0118109 14.8612C-0.421293 14.4281 -0.445792 13.7339 -0.0443679 13.2714C0.290979 12.8851 0.572617 12.578 0.800553 12.3501C8.09038 5.06026 19.9094 5.06026 27.1992 12.3501C27.4271 12.578 27.7088 12.8851 28.0441 13.2714C28.4455 13.7339 28.421 14.4281 27.988 14.8611L25.0707 17.7784C24.859 17.9901 24.5212 18.0071 24.2893 17.8177C24.0811 17.6476 23.9115 17.5135 23.7805 17.4154C22.4482 16.4168 20.9981 15.6484 19.4844 15.1101C19.2415 15.0237 19.0954 14.7756 19.1378 14.5212L19.6464 11.4688C16.0304 10.0207 11.9693 10.0207 8.35329 11.4688L8.86122 14.5158C8.90403 14.7732 8.7562 15.0243 8.51044 15.1119C6.99723 15.6505 5.54761 16.4192 4.21588 17.418C4.0857 17.5155 3.91725 17.6488 3.71043 17.8177C3.47845 18.0071 3.14071 17.9901 2.92894 17.7783Z" fill="white"/>
</g>
<defs>
<clipPath id="clip0_1_388">
<rect width="28" height="28" fill="white"/>
</clipPath>
</defs>
</svg>
