<svg width="10" height="28" viewBox="0 0 10 28" fill="none" xmlns="http://www.w3.org/2000/svg">
<path fill-rule="evenodd" clip-rule="evenodd" d="M9.04854 9.4984C8.68836 9.26504 8.23954 9.23048 7.84798 9.40586C7.13841 9.72349 6.39051 9.92386 5.63248 10.0079V8.74786C7.16805 8.35674 8.30719 6.96243 8.30719 5.30676C8.30719 4.55126 7.87855 3.56437 6.99677 2.28976C6.37306 1.38819 5.70533 0.606812 5.44726 0.312812C5.27275 0.114023 5.02102 0 4.75655 0H4.75639C4.49192 5.46875e-05 4.24019 0.114133 4.0659 0.312812C3.80778 0.606922 3.14005 1.38824 2.51633 2.28982C1.63455 3.56448 1.20591 4.55131 1.20591 5.30682C1.20591 7.00175 2.39996 8.4222 3.99076 8.7734V10.0079C3.23285 9.92381 2.485 9.72338 1.77565 9.40586C1.38403 9.23048 0.935265 9.26521 0.575094 9.4984C0.215031 9.73175 0 10.1272 0 10.5563V26.051C5.46875e-05 27.1257 0.874343 28 1.94906 28H7.67468C8.7494 28 9.62368 27.1256 9.62368 26.051V10.5563C9.62368 10.1272 9.40871 9.73175 9.04854 9.4984ZM3.99052 5.98797V7.05481C3.31825 6.75912 2.84739 6.08706 2.84739 5.30673C2.84739 4.74514 3.62319 3.43335 4.75637 2.03877C5.88933 3.43313 6.66529 4.74514 6.66529 5.30673C6.66529 6.04364 6.24529 6.68392 5.6323 7.00198V5.98791C5.6323 5.53455 5.2648 5.16705 4.81144 5.16705C4.35802 5.16711 3.99052 5.53461 3.99052 5.98797ZM7.67457 26.3582C7.84399 26.3582 7.98186 26.2204 7.98186 26.0509V11.1242C6.96774 11.5023 5.90117 11.6923 4.83421 11.695C4.83092 11.6951 4.82766 11.6953 4.82441 11.6955C4.82016 11.6958 4.81591 11.6961 4.81157 11.6961C4.80724 11.6961 4.80298 11.6958 4.79871 11.6955C4.79543 11.6953 4.79215 11.6951 4.78882 11.695C3.72209 11.6923 2.65568 11.5022 1.64167 11.1242V26.0509C1.64167 26.2204 1.77953 26.3582 1.94896 26.3582H7.67457Z" fill="#77838F"/>
</svg>
