<svg width="15" height="15" viewBox="0 0 15 15" fill="none" xmlns="http://www.w3.org/2000/svg">
<path fill-rule="evenodd" clip-rule="evenodd" d="M14.1663 10.8158V12.823C14.1678 13.1998 14.0101 13.5598 13.7319 13.8145C13.4537 14.0692 13.0808 14.1951 12.7048 14.1611C10.6419 13.9374 8.66032 13.2339 6.91932 12.1071C5.29953 11.0799 3.92624 9.70931 2.89696 8.09273C1.76399 6.34728 1.05891 4.36002 0.838861 2.29195C0.804989 1.91786 0.930217 1.54678 1.18396 1.26937C1.4377 0.99195 1.79658 0.833743 2.17294 0.833389H4.18412C4.8571 0.826778 5.43071 1.31911 5.5249 1.98418C5.60979 2.62653 5.76721 3.25723 5.99418 3.86425C6.17836 4.35325 6.06056 4.90451 5.6925 5.27597L4.8411 6.12569C5.79544 7.80072 7.1851 9.18762 8.86345 10.1401L9.71485 9.29036C10.087 8.92303 10.6394 8.80546 11.1294 8.98928C11.7376 9.21579 12.3696 9.37291 13.0132 9.45763C13.6873 9.55254 14.1831 10.1366 14.1663 10.8158Z" stroke="#6D2B7D" stroke-width="1.65803" stroke-linecap="round" stroke-linejoin="round"/>
</svg>
