<svg width="20" height="20" viewBox="0 0 20 20" fill="none" xmlns="http://www.w3.org/2000/svg">
<path d="M0.219679 0.219659C0.512567 -0.0732281 0.987442 -0.0732181 1.28033 0.219679L19.7799 18.7196C20.0728 19.0125 20.0728 19.4874 19.7799 19.7803C19.487 20.0732 19.0121 20.0732 18.7192 19.7803L17.7741 18.8351C17.4521 18.942 17.1077 18.9998 16.7498 18.9998H3.24997C1.45506 18.9998 1.19595e-06 17.5447 1.19595e-06 15.7499V6.24994C1.19595e-06 4.84659 0.889483 3.65097 2.13543 3.19612L0.219659 1.28031C-0.0732281 0.987422 -0.0732181 0.512547 0.219679 0.219659ZM11.8223 12.8832C11.3171 13.27 10.6853 13.4999 9.99991 13.4999C8.34302 13.4999 6.99994 12.1568 6.99994 10.4999C6.99994 9.81441 7.22983 9.18272 7.61671 8.67752L6.54987 7.61065C5.89454 8.39232 5.49995 9.40001 5.49995 10.4999C5.49995 12.9852 7.51465 14.9999 9.99991 14.9999C11.0997 14.9999 12.1074 14.6053 12.8891 13.95L11.8223 12.8832ZM14.4368 11.2551C14.4783 11.0095 14.4999 10.7572 14.4999 10.4999C14.4999 8.01463 12.4852 5.99995 9.99991 5.99995C9.74261 5.99995 9.49031 6.02155 9.24482 6.06302L5.65432 2.47241L6.20494 1.57569C6.61419 0.909203 7.34019 0.503047 8.12233 0.503047H11.9246C12.7224 0.503047 13.4606 0.925523 13.8646 1.61341L14.6792 2.99997H16.7498C18.5447 2.99997 19.9998 4.45504 19.9998 6.24994V15.7499C19.9998 16.074 19.9524 16.3871 19.864 16.6824L14.4368 11.2551Z" fill="#EB5757"/>
</svg>
