<svg width="11" height="10" viewBox="0 0 11 10" fill="none" xmlns="http://www.w3.org/2000/svg">
<path d="M5.50005 9.77788C5.43582 9.77832 5.37227 9.76477 5.3138 9.73818C5.25534 9.71158 5.20337 9.67258 5.16149 9.62388L3.45037 7.79052H0.446115C0.328551 7.79118 0.215535 7.74514 0.13189 7.66252C0.0482438 7.57991 0.000807883 7.46747 0 7.34991V0.441233C0.000320129 0.382969 0.0121133 0.325339 0.0347061 0.271632C0.0572989 0.217926 0.090249 0.169196 0.131675 0.128224C0.173101 0.0872527 0.222191 0.0548415 0.276143 0.0328418C0.330095 0.0108421 0.387851 -0.000315126 0.446115 6.77173e-06H10.5546C10.6722 -0.000480812 10.7851 0.0457125 10.8686 0.128441C10.9522 0.21117 10.9995 0.32367 11.0001 0.441233V7.35113C10.9998 7.4094 10.988 7.46703 10.9654 7.52073C10.9428 7.57444 10.9099 7.62317 10.8684 7.66414C10.827 7.70511 10.7779 7.73752 10.724 7.75952C10.67 7.78152 10.6123 7.79268 10.554 7.79236H7.5479L5.82822 9.6361C5.78614 9.68093 5.7353 9.71665 5.67885 9.74104C5.6224 9.76543 5.56154 9.77797 5.50005 9.77788ZM0.89162 6.90929H3.64715C3.70816 6.90974 3.76845 6.92258 3.82434 6.94706C3.88023 6.97154 3.93056 7.00714 3.97226 7.05168L5.50005 8.68703L7.02479 7.05168C7.06689 7.00688 7.11774 6.97118 7.17418 6.94679C7.23063 6.92241 7.29147 6.90985 7.35296 6.90991H10.1085V0.881848H0.89162V6.90929Z" fill="#6D2B7D"/>
<path d="M3.59495 4.43302C3.86293 4.43302 4.08017 4.21605 4.08017 3.94841C4.08017 3.68076 3.86293 3.46379 3.59495 3.46379C3.32696 3.46379 3.10972 3.68076 3.10972 3.94841C3.10972 4.21605 3.32696 4.43302 3.59495 4.43302Z" fill="#6D2B7D"/>
<path d="M5.50068 4.43302C5.76867 4.43302 5.98591 4.21605 5.98591 3.94841C5.98591 3.68076 5.76867 3.46379 5.50068 3.46379C5.2327 3.46379 5.01546 3.68076 5.01546 3.94841C5.01546 4.21605 5.2327 4.43302 5.50068 4.43302Z" fill="#6D2B7D"/>
<path d="M7.40544 4.43302C7.67342 4.43302 7.89066 4.21605 7.89066 3.94841C7.89066 3.68076 7.67342 3.46379 7.40544 3.46379C7.13745 3.46379 6.92021 3.68076 6.92021 3.94841C6.92021 4.21605 7.13745 4.43302 7.40544 4.43302Z" fill="#6D2B7D"/>
</svg>
