<svg width="68" height="13" viewBox="0 0 68 13" fill="none" xmlns="http://www.w3.org/2000/svg">
<g clip-path="url(#clip0_103_1279)">
<path opacity="0.4" fill-rule="evenodd" clip-rule="evenodd" d="M46.0894 0.559998H60.9106C62.1587 0.559998 62.6113 0.689953 63.0676 0.933983C63.5239 1.17801 63.882 1.53612 64.126 1.99241C64.37 2.44871 64.5 2.90131 64.5 4.14944V8.47056C64.5 9.71868 64.37 10.1713 64.126 10.6276C63.882 11.0839 63.5239 11.442 63.0676 11.686C62.6113 11.93 62.1587 12.06 60.9106 12.06H46.0894C44.8413 12.06 44.3887 11.93 43.9324 11.686C43.4761 11.442 43.118 11.0839 42.874 10.6276C42.63 10.1713 42.5 9.71868 42.5 8.47056V4.14944C42.5 2.90131 42.63 2.44871 42.874 1.99241C43.118 1.53612 43.4761 1.17801 43.9324 0.933983C44.3887 0.689953 44.8413 0.559998 46.0894 0.559998ZM46.0894 1.56C45.1025 1.56 44.7579 1.62653 44.404 1.8158C44.122 1.96663 43.9066 2.18198 43.7558 2.46401C43.5665 2.8179 43.5 3.16246 43.5 4.14944V8.47056C43.5 9.45754 43.5665 9.80209 43.7558 10.156C43.9066 10.438 44.122 10.6534 44.404 10.8042C44.7579 10.9935 45.1025 11.06 46.0894 11.06H60.9106C61.8975 11.06 62.2421 10.9935 62.596 10.8042C62.878 10.6534 63.0934 10.438 63.2442 10.156C63.4335 9.80209 63.5 9.45754 63.5 8.47056V4.14944C63.5 3.16246 63.4335 2.8179 63.2442 2.46401C63.0934 2.18198 62.878 1.96663 62.596 1.8158C62.2421 1.62653 61.8975 1.56 60.9106 1.56H46.0894ZM67 6.25C67 7.48657 65.5 8.25 65.5 8.25V4.25C65.5 4.25 67 5.01343 67 6.25Z" fill="black"/>
<rect x="44.5" y="2.47665" width="18" height="7.66667" rx="1.6" fill="black"/>
<path fill-rule="evenodd" clip-rule="evenodd" d="M14.1227 1.96589C14.0996 2.08181 14.0996 2.22121 14.0996 2.5V10.2C14.0996 10.4788 14.0996 10.6182 14.1227 10.7341C14.2174 11.2101 14.5895 11.5823 15.0655 11.6769C15.1814 11.7 15.3208 11.7 15.5996 11.7C15.8784 11.7 16.0178 11.7 16.1337 11.6769C16.6097 11.5823 16.9819 11.2101 17.0766 10.7341C17.0996 10.6182 17.0996 10.4788 17.0996 10.2V2.5C17.0996 2.22121 17.0996 2.08181 17.0766 1.96589C16.9819 1.48986 16.6097 1.11775 16.1337 1.02306C16.0178 1 15.8784 1 15.5996 1C15.3208 1 15.1814 1 15.0655 1.02306C14.5895 1.11775 14.2174 1.48986 14.1227 1.96589ZM9.40039 4.89999C9.40039 4.6212 9.40039 4.4818 9.42345 4.36589C9.51814 3.88986 9.89025 3.51774 10.3663 3.42305C10.4822 3.39999 10.6216 3.39999 10.9004 3.39999C11.1792 3.39999 11.3186 3.39999 11.4345 3.42305C11.9105 3.51774 12.2826 3.88986 12.3773 4.36589C12.4004 4.4818 12.4004 4.6212 12.4004 4.89999V10.2C12.4004 10.4788 12.4004 10.6182 12.3773 10.7341C12.2826 11.2101 11.9105 11.5823 11.4345 11.6769C11.3186 11.7 11.1792 11.7 10.9004 11.7C10.6216 11.7 10.4822 11.7 10.3663 11.6769C9.89025 11.5823 9.51814 11.2101 9.42345 10.7341C9.40039 10.6182 9.40039 10.4788 9.40039 10.2V4.89999ZM4.82305 6.6659C4.79999 6.78182 4.79999 6.92121 4.79999 7.2V10.2C4.79999 10.4788 4.79999 10.6182 4.82305 10.7341C4.91773 11.2101 5.28985 11.5823 5.76588 11.6769C5.8818 11.7 6.02119 11.7 6.29999 11.7C6.57878 11.7 6.71818 11.7 6.8341 11.6769C7.31012 11.5823 7.68224 11.2101 7.77693 10.7341C7.79999 10.6182 7.79999 10.4788 7.79999 10.2V7.2C7.79999 6.92121 7.79999 6.78182 7.77693 6.6659C7.68224 6.18987 7.31012 5.81775 6.8341 5.72306C6.71818 5.7 6.57878 5.7 6.29999 5.7C6.02119 5.7 5.8818 5.7 5.76588 5.72306C5.28985 5.81775 4.91773 6.18987 4.82305 6.6659ZM0.0230577 8.6659C0 8.78182 0 8.92121 0 9.2V10.2C0 10.4788 0 10.6182 0.0230577 10.7341C0.117746 11.2101 0.489863 11.5823 0.965892 11.6769C1.08181 11.7 1.22121 11.7 1.5 11.7C1.77879 11.7 1.91819 11.7 2.03411 11.6769C2.51014 11.5823 2.88225 11.2101 2.97694 10.7341C3 10.6182 3 10.4788 3 10.2V9.2C3 8.92121 3 8.78182 2.97694 8.6659C2.88225 8.18987 2.51014 7.81775 2.03411 7.72306C1.91819 7.7 1.77879 7.7 1.5 7.7C1.22121 7.7 1.08181 7.7 0.965892 7.72306C0.489863 7.81775 0.117746 8.18987 0.0230577 8.6659Z" fill="black"/>
<path fill-rule="evenodd" clip-rule="evenodd" d="M29.8 3.09635C32.0344 3.09645 34.1834 3.955 35.8028 5.49456C35.9247 5.61342 36.1196 5.61192 36.2397 5.4912L37.4054 4.31478C37.4662 4.25355 37.5001 4.17061 37.4996 4.08431C37.4991 3.99802 37.4642 3.91548 37.4027 3.85497C33.1524 -0.218339 26.447 -0.218339 22.1967 3.85497C22.1351 3.91544 22.1002 3.99795 22.0996 4.08425C22.099 4.17054 22.1329 4.2535 22.1937 4.31478L23.3597 5.4912C23.4797 5.6121 23.6747 5.6136 23.7966 5.49456C25.4162 3.9549 27.5654 3.09634 29.8 3.09635ZM29.8 6.92373C31.0277 6.92366 32.2115 7.37997 33.1216 8.20401C33.2446 8.32096 33.4385 8.31843 33.5585 8.1983L34.7228 7.02188C34.7841 6.96017 34.8182 6.87646 34.8173 6.78948C34.8164 6.70249 34.7807 6.61949 34.7181 6.55904C31.947 3.9813 27.6555 3.9813 24.8843 6.55904C24.8217 6.61949 24.786 6.70253 24.7852 6.78955C24.7843 6.87656 24.8185 6.96026 24.8799 7.02188L26.0439 8.1983C26.1639 8.31843 26.3578 8.32096 26.4809 8.20401C27.3903 7.38052 28.5732 6.92424 29.8 6.92373ZM32.0379 9.73133C32.1002 9.67022 32.1344 9.58612 32.1327 9.49889C32.1309 9.41166 32.0932 9.32903 32.0285 9.27051C30.7422 8.18261 28.8584 8.18261 27.5722 9.27051C27.5075 9.32899 27.4697 9.41159 27.4678 9.49882C27.466 9.58605 27.5002 9.67018 27.5625 9.73133L29.5768 11.7638C29.6359 11.8236 29.7163 11.8572 29.8003 11.8572C29.8843 11.8572 29.9648 11.8236 30.0239 11.7638L32.0379 9.73133Z" fill="black"/>
</g>
<defs>
<clipPath id="clip0_103_1279">
<rect width="68" height="13" fill="white"/>
</clipPath>
</defs>
</svg>
