<svg width="30" height="25" viewBox="0 0 30 25" fill="none" xmlns="http://www.w3.org/2000/svg">
<path fill-rule="evenodd" clip-rule="evenodd" d="M7.57107 17.7366H22.6193C23.7483 17.7366 24.6668 16.818 24.6668 15.6891V4.99745C24.6668 3.86838 23.7483 2.94989 22.6193 2.94989H13.8377V1.96849C13.8377 0.88307 12.9546 0 11.8691 0H8.4357C7.35027 0 6.4672 0.88307 6.4672 1.96849V3.2743C5.9002 3.63883 5.52352 4.27479 5.52352 4.9975V15.6891C5.52352 16.818 6.44206 17.7366 7.57107 17.7366ZM22.6196 15.9744H7.57136C7.41665 15.9744 7.28601 15.8437 7.28601 15.6891V10.7364H13.0653C13.2642 12.7806 14.9968 14.3839 17.0981 14.3839C19.1995 14.3839 20.932 12.7806 21.1309 10.7364H22.9051V15.689C22.905 15.8437 22.7743 15.9744 22.6196 15.9744ZM17.0978 12.6218C18.3605 12.6218 19.3878 11.5997 19.3878 10.3433C19.3878 9.08685 18.3605 8.06468 17.0978 8.06468C15.835 8.06468 14.8077 9.08685 14.8077 10.3433C14.8077 11.5997 15.835 12.6218 17.0978 12.6218ZM22.9051 4.99743V8.97424H20.9105C20.3467 7.41803 18.8508 6.30254 17.0981 6.30254C15.3454 6.30254 13.8495 7.41803 13.2857 8.97424H7.28601V4.99743C7.28601 4.84272 7.41671 4.71202 7.57136 4.71202H22.6196C22.7744 4.71202 22.9051 4.84272 22.9051 4.99743ZM8.4357 1.76214C8.32192 1.76214 8.22935 1.85471 8.22935 1.96848H8.22941V2.94988H12.0755V1.96848C12.0755 1.85471 11.983 1.76214 11.8691 1.76214H8.4357Z" fill="#77838F"/>
<path d="M15.1441 22.0423C15.1308 21.8884 15.0803 21.6902 14.9298 21.521L13.1491 19.4746C12.8296 19.1074 12.2731 19.0688 11.9061 19.3883C11.539 19.7077 11.5004 20.2643 11.8198 20.6313L12.234 21.1073C10.1545 20.9067 7.79885 20.4657 6.32917 20.0492C5.01549 19.6769 1.94136 18.6644 1.76944 17.3061C1.64891 16.3538 3.0894 15.183 3.80448 14.7661C4.22575 14.5225 4.36978 13.9836 4.12631 13.5623C3.88272 13.141 3.3438 12.9971 2.92253 13.2405C2.89122 13.2586 2.14689 13.692 1.43199 14.3797C0.378634 15.3928 -0.109421 16.4795 0.0205661 17.5223C0.244124 19.3155 2.15047 20.6966 5.84869 21.7446C7.455 22.1999 9.95466 22.6668 12.1751 22.8722L11.6857 23.338C11.3332 23.6735 11.3194 24.2311 11.6549 24.5836C11.8281 24.7656 12.0604 24.8573 12.2932 24.8573C12.5114 24.8573 12.73 24.7768 12.9005 24.6144L14.8726 22.7376C15.027 22.5818 15.1687 22.3408 15.1441 22.0423Z" fill="#77838F"/>
<path d="M27.5977 13.2531C27.1824 12.9992 26.6401 13.1304 26.3865 13.5455C26.1328 13.9608 26.2637 14.503 26.679 14.7567C26.6835 14.7596 27.1467 15.048 27.5765 15.5049C27.919 15.869 28.3095 16.4165 28.2251 16.9565C28.1333 17.5424 27.2985 19.0558 21.54 20.4527C21.0671 20.5675 20.7767 21.0438 20.8914 21.5167C20.9892 21.9198 21.3498 22.1903 21.747 22.1903C21.8157 22.1903 21.8856 22.1821 21.9554 22.1652C27.0181 20.9371 29.6384 19.3225 29.966 17.2289C30.3232 14.947 27.7092 13.3212 27.5977 13.2531Z" fill="#77838F"/>
<circle cx="9.72894" cy="6.95583" r="0.881073" fill="#77838F"/>
</svg>
