<svg width="21" height="21" viewBox="0 0 21 21" fill="none" xmlns="http://www.w3.org/2000/svg">
<path fill-rule="evenodd" clip-rule="evenodd" d="M7.87282 2.62378C6.83495 2.62419 5.82051 2.93231 4.95774 3.50919C4.09498 4.08608 3.42262 4.90581 3.02569 5.86477C2.62875 6.82373 2.52505 7.87885 2.7277 8.89674C2.93036 9.91463 3.43026 10.8496 4.16421 11.5834C4.89816 12.3172 5.83321 12.8169 6.85114 13.0194C7.86906 13.2218 8.92416 13.1179 9.88304 12.7208C10.8419 12.3237 11.6615 11.6511 12.2382 10.7883C12.815 9.92538 13.1229 8.91088 13.1231 7.87301C13.1232 7.18355 12.9875 6.50081 12.7237 5.86382C12.4599 5.22682 12.0731 4.64805 11.5856 4.16058C11.098 3.6731 10.5191 3.28647 9.88209 3.02278C9.24504 2.75909 8.56228 2.62351 7.87282 2.62378ZM5.07444e-07 7.87301C-3.01615e-05 6.63404 0.292356 5.41255 0.853383 4.30788C1.41441 3.20321 2.22824 2.24654 3.22868 1.51568C4.22912 0.784814 5.38794 0.300388 6.61089 0.101795C7.83385 -0.0967983 9.08641 -0.00395203 10.2667 0.372783C11.447 0.749518 12.5217 1.39951 13.4035 2.26989C14.2852 3.14027 14.9491 4.20647 15.3412 5.38179C15.7332 6.55711 15.8423 7.80835 15.6596 9.03378C15.4769 10.2592 15.0075 11.4242 14.2897 12.4341L20.6105 18.7548C20.7326 18.877 20.8295 19.022 20.8956 19.1815C20.9617 19.3411 20.9957 19.5121 20.9957 19.6848C20.9957 19.8575 20.9617 20.0286 20.8956 20.1881C20.8295 20.3477 20.7326 20.4927 20.6105 20.6148C20.4883 20.7369 20.3434 20.8338 20.1838 20.8999C20.0242 20.966 19.8532 21 19.6805 21C19.5078 21 19.3368 20.966 19.1772 20.8999C19.0176 20.8338 18.8726 20.7369 18.7505 20.6148L12.4308 14.2951C11.2527 15.1316 9.86705 15.6277 8.42573 15.7292C6.98441 15.8307 5.54296 15.5336 4.25927 14.8704C2.97557 14.2072 1.89914 13.2035 1.14787 11.9693C0.396604 10.7351 -0.000518177 9.3179 5.07444e-07 7.87301Z" fill="#585858"/>
</svg>
