<svg width="16" height="12" viewBox="0 0 16 12" fill="none" xmlns="http://www.w3.org/2000/svg">
<path d="M11.0001 7.60007C10.6687 7.60007 10.4001 7.86871 10.4001 8.20008C10.4001 8.53144 10.6687 8.80008 11.0001 8.80008H13.0001C13.3315 8.80008 13.6001 8.53144 13.6001 8.20008C13.6001 7.86871 13.3315 7.60007 13.0001 7.60007H11.0001ZM0 2.60002C0 1.16407 1.16407 0 2.60002 0H13.4001C14.8361 0 16.0001 1.16407 16.0001 2.60002V8.60008C16.0001 10.036 14.8361 11.2001 13.4001 11.2001H2.60002C1.16407 11.2001 0 10.036 0 8.60008V2.60002ZM14.8001 3.60003V2.60002C14.8001 1.82682 14.1733 1.20001 13.4001 1.20001H2.60002C1.82682 1.20001 1.20001 1.82682 1.20001 2.60002V3.60003H14.8001ZM1.20001 4.80004V8.60008C1.20001 9.37329 1.82682 10.0001 2.60002 10.0001H13.4001C14.1733 10.0001 14.8001 9.37329 14.8001 8.60008V4.80004H1.20001Z" fill="#212121"/>
</svg>
