<svg width="28" height="28" viewBox="0 0 28 28" fill="none" xmlns="http://www.w3.org/2000/svg">
<path d="M14.0004 1.99978C14.1993 1.99978 14.3901 2.0788 14.5307 2.21945C14.6714 2.3601 14.7504 2.55086 14.7504 2.74977V4.24576C14.7504 4.44467 14.6714 4.63543 14.5307 4.77609C14.3901 4.91674 14.1993 4.99575 14.0004 4.99575C13.8015 4.99575 13.6107 4.91674 13.4701 4.77609C13.3294 4.63543 13.2504 4.44467 13.2504 4.24576V2.74977C13.2504 2.55086 13.3294 2.3601 13.4701 2.21945C13.6107 2.0788 13.8015 1.99978 14.0004 1.99978ZM14.0004 19.9996C14.7883 19.9996 15.5685 19.8444 16.2965 19.5429C17.0244 19.2414 17.6859 18.7994 18.243 18.2423C18.8002 17.6851 19.2421 17.0237 19.5436 16.2958C19.8452 15.5678 20.0004 14.7876 20.0004 13.9997C20.0004 13.2118 19.8452 12.4315 19.5436 11.7036C19.2421 10.9756 18.8002 10.3142 18.243 9.75707C17.6859 9.19993 17.0244 8.75797 16.2965 8.45645C15.5685 8.15492 14.7883 7.99973 14.0004 7.99973C12.4091 7.99973 10.883 8.63186 9.7578 9.75707C8.63259 10.8823 8.00046 12.4084 8.00046 13.9997C8.00046 15.591 8.63259 17.1171 9.7578 18.2423C10.883 19.3675 12.4091 19.9996 14.0004 19.9996ZM14.0004 18.4996C13.4095 18.4997 12.8243 18.3834 12.2783 18.1573C11.7323 17.9312 11.2362 17.5998 10.8183 17.182C9.97431 16.3382 9.50008 15.1936 9.49994 14.0002C9.49981 12.8067 9.97379 11.6621 10.8176 10.8181C11.6614 9.97408 12.8059 9.49985 13.9994 9.49972C15.1929 9.49972 16.3375 9.97382 17.1814 10.8177C18.0253 11.6616 18.4994 12.8062 18.4994 13.9997C18.4994 15.1931 18.0253 16.3377 17.1814 17.1816C16.3375 18.0255 15.1929 18.4996 13.9994 18.4996H14.0004ZM25.2503 14.7497C25.4492 14.7497 25.64 14.6707 25.7806 14.53C25.9213 14.3894 26.0003 14.1986 26.0003 13.9997C26.0003 13.8008 25.9213 13.61 25.7806 13.4694C25.64 13.3287 25.4492 13.2497 25.2503 13.2497H23.7533C23.5544 13.2497 23.3636 13.3287 23.223 13.4694C23.0823 13.61 23.0033 13.8008 23.0033 13.9997C23.0033 14.1986 23.0823 14.3894 23.223 14.53C23.3636 14.6707 23.5544 14.7497 23.7533 14.7497H25.2493H25.2503ZM14.0004 23.0036C14.1993 23.0036 14.3901 23.0826 14.5307 23.2233C14.6714 23.3639 14.7504 23.5547 14.7504 23.7536V25.2496C14.7504 25.4485 14.6714 25.6393 14.5307 25.7799C14.3901 25.9206 14.1993 25.9996 14.0004 25.9996C13.8015 25.9996 13.6107 25.9206 13.4701 25.7799C13.3294 25.6393 13.2504 25.4485 13.2504 25.2496V23.7536C13.2504 23.5547 13.3294 23.3639 13.4701 23.2233C13.6107 23.0826 13.8015 23.0036 14.0004 23.0036ZM4.25049 14.7497C4.4494 14.7497 4.64016 14.6707 4.78081 14.53C4.92146 14.3894 5.00048 14.1986 5.00048 13.9997C5.00048 13.8008 4.92146 13.61 4.78081 13.4694C4.64016 13.3287 4.4494 13.2497 4.25049 13.2497H2.7505C2.55159 13.2497 2.36083 13.3287 2.22017 13.4694C2.07952 13.61 2.00051 13.8008 2.00051 13.9997C2.00051 14.1986 2.07952 14.3894 2.22017 14.53C2.36083 14.6707 2.55159 14.7497 2.7505 14.7497H4.25049ZM5.21948 5.21875C5.3601 5.0783 5.55073 4.99941 5.74947 4.99941C5.94822 4.99941 6.13885 5.0783 6.27947 5.21875L7.77946 6.71874C7.91194 6.86091 7.98406 7.04896 7.98063 7.24326C7.9772 7.43756 7.89849 7.62294 7.76108 7.76035C7.62367 7.89776 7.43828 7.97648 7.24398 7.9799C7.04969 7.98333 6.86164 7.91121 6.71947 7.77873L5.21948 6.27874C5.07903 6.13812 5.00014 5.9475 5.00014 5.74875C5.00014 5.55 5.07903 5.35938 5.21948 5.21875ZM6.27947 22.7786C6.1373 22.9111 5.94925 22.9832 5.75495 22.9798C5.56065 22.9764 5.37527 22.8976 5.23786 22.7602C5.10045 22.6228 5.02173 22.4374 5.01831 22.2431C5.01488 22.0488 5.087 21.8608 5.21948 21.7186L6.71947 20.2186C6.86164 20.0861 7.04969 20.014 7.24398 20.0175C7.43828 20.0209 7.62367 20.0996 7.76108 20.237C7.89849 20.3744 7.9772 20.5598 7.98063 20.7541C7.98406 20.9484 7.91194 21.1364 7.77946 21.2786L6.27947 22.7786ZM22.7793 5.21875C22.6387 5.0783 22.4481 4.99941 22.2493 4.99941C22.0506 4.99941 21.86 5.0783 21.7193 5.21875L20.2194 6.71874C20.0869 6.86091 20.0148 7.04896 20.0182 7.24326C20.0216 7.43756 20.1003 7.62294 20.2377 7.76035C20.3751 7.89776 20.5605 7.97648 20.7548 7.9799C20.9491 7.98333 21.1372 7.91121 21.2793 7.77873L22.7793 6.27874C22.9198 6.13812 22.9987 5.9475 22.9987 5.74875C22.9987 5.55 22.9198 5.35938 22.7793 5.21875ZM21.7273 22.7876C21.796 22.8613 21.8788 22.9204 21.9708 22.9614C22.0628 23.0024 22.1621 23.0244 22.2628 23.0262C22.3635 23.028 22.4635 23.0094 22.5569 22.9717C22.6503 22.934 22.7352 22.8779 22.8064 22.8066C22.8776 22.7354 22.9337 22.6506 22.9715 22.5572C23.0092 22.4638 23.0277 22.3638 23.0259 22.2631C23.0241 22.1624 23.0021 22.0631 22.9611 21.9711C22.9201 21.8791 22.861 21.7963 22.7873 21.7276L21.2793 20.2186C21.2107 20.1449 21.1279 20.0858 21.0359 20.0448C20.9439 20.0039 20.8446 19.9818 20.7439 19.98C20.6432 19.9783 20.5431 19.9968 20.4498 20.0345C20.3564 20.0722 20.2715 20.1284 20.2003 20.1996C20.1291 20.2708 20.073 20.3556 20.0352 20.449C19.9975 20.5424 19.979 20.6424 19.9808 20.7431C19.9825 20.8438 20.0046 20.9432 20.0456 21.0352C20.0866 21.1272 20.1457 21.21 20.2194 21.2786L21.7273 22.7876Z" fill="#C3C6CE"/>
</svg>
