<svg width="17" height="12" viewBox="0 0 17 12" fill="none" xmlns="http://www.w3.org/2000/svg">
<path d="M10.0455 10.303C10.4722 10.303 10.8182 10.649 10.8182 11.0758C10.8182 11.5025 10.4722 11.8485 10.0455 11.8485H6.95455C6.52779 11.8485 6.18182 11.5025 6.18182 11.0758C6.18182 10.649 6.52779 10.303 6.95455 10.303H10.0455ZM13.1364 5.15152C13.5631 5.15152 13.9091 5.49749 13.9091 5.92424C13.9091 6.35099 13.5631 6.69697 13.1364 6.69697H3.86364C3.43687 6.69697 3.09091 6.35099 3.09091 5.92424C3.09091 5.49749 3.43687 5.15152 3.86364 5.15152H13.1364ZM16.2273 0C16.654 0 17 0.345965 17 0.772727C17 1.19949 16.654 1.54545 16.2273 1.54545H0.772727C0.345965 1.54545 0 1.19949 0 0.772727C0 0.345965 0.345965 0 0.772727 0H16.2273Z" fill="#212121"/>
</svg>
