<svg width="13" height="12" viewBox="0 0 13 12" fill="none" xmlns="http://www.w3.org/2000/svg">
<path d="M6.5 11.5556C6.42409 11.5561 6.34899 11.5401 6.27989 11.5086C6.2108 11.4772 6.14937 11.4311 6.09989 11.3736L4.07767 9.2069H0.527222C0.388284 9.20767 0.254721 9.15326 0.155868 9.05562C0.0570149 8.95799 0.000954762 8.82511 0 8.68617V0.521452C0.000378331 0.452596 0.0143156 0.384487 0.0410159 0.321017C0.0677163 0.257547 0.106657 0.199957 0.155614 0.151537C0.204571 0.103116 0.262587 0.064812 0.326347 0.0388127C0.390108 0.0128133 0.458365 -0.000372418 0.527222 8.00287e-06H12.4735C12.6124 -0.000568227 12.7459 0.0540233 12.8446 0.151793C12.9434 0.249562 12.9992 0.382516 13 0.521452V8.68762C12.9996 8.75648 12.9857 8.82458 12.959 8.88805C12.9323 8.95152 12.8933 9.00911 12.8444 9.05753C12.7954 9.10595 12.7374 9.14426 12.6737 9.17026C12.6099 9.19626 12.5416 9.20944 12.4728 9.20906H8.92017L6.88783 11.388C6.8381 11.441 6.77802 11.4832 6.7113 11.512C6.64459 11.5409 6.57267 11.5557 6.5 11.5556ZM1.05372 8.16545H4.31022C4.38233 8.16597 4.45358 8.18116 4.51963 8.21009C4.58569 8.23902 4.64516 8.28109 4.69444 8.33373L6.5 10.2664L8.30194 8.33373C8.3517 8.28078 8.41179 8.23858 8.4785 8.20977C8.5452 8.18095 8.61711 8.16611 8.68978 8.16617H11.9463V1.04217H1.05372V8.16545Z" fill="#0F393A"/>
<path d="M4.24883 5.23901C4.56553 5.23901 4.82227 4.98259 4.82227 4.66629C4.82227 4.34998 4.56553 4.09356 4.24883 4.09356C3.93212 4.09356 3.67538 4.34998 3.67538 4.66629C3.67538 4.98259 3.93212 5.23901 4.24883 5.23901Z" fill="#0F393A"/>
<path d="M6.49999 5.23901C6.8167 5.23901 7.07344 4.98259 7.07344 4.66629C7.07344 4.34998 6.8167 4.09356 6.49999 4.09356C6.18329 4.09356 5.92655 4.34998 5.92655 4.66629C5.92655 4.98259 6.18329 5.23901 6.49999 5.23901Z" fill="#0F393A"/>
<path d="M8.75117 5.23901C9.06787 5.23901 9.32461 4.98259 9.32461 4.66629C9.32461 4.34998 9.06787 4.09356 8.75117 4.09356C8.43446 4.09356 8.17772 4.34998 8.17772 4.66629C8.17772 4.98259 8.43446 5.23901 8.75117 5.23901Z" fill="#0F393A"/>
</svg>
