<svg width="24" height="24" viewBox="0 0 24 24" fill="none" xmlns="http://www.w3.org/2000/svg">
<path fill-rule="evenodd" clip-rule="evenodd" d="M8.39998 4.80001C8.39998 3.84523 8.77926 2.92956 9.45439 2.25443C10.1295 1.5793 11.0452 1.20001 12 1.20001C12.9548 1.20001 13.8704 1.5793 14.5456 2.25443C15.2207 2.92956 15.6 3.84523 15.6 4.80001V9.60001C15.6 10.5548 15.2207 11.4705 14.5456 12.1456C13.8704 12.8207 12.9548 13.2 12 13.2C11.0452 13.2 10.1295 12.8207 9.45439 12.1456C8.77926 11.4705 8.39998 10.5548 8.39998 9.60001V4.80001ZM13.2 17.916C15.1994 17.6272 17.0278 16.6275 18.3502 15.1002C19.6725 13.5729 20.4002 11.6202 20.4 9.60001C20.4 9.28175 20.2735 8.97653 20.0485 8.75148C19.8235 8.52644 19.5182 8.40001 19.2 8.40001C18.8817 8.40001 18.5765 8.52644 18.3514 8.75148C18.1264 8.97653 18 9.28175 18 9.60001C18 11.1913 17.3678 12.7174 16.2426 13.8427C15.1174 14.9679 13.5913 15.6 12 15.6C10.4087 15.6 8.88255 14.9679 7.75733 13.8427C6.63212 12.7174 5.99998 11.1913 5.99998 9.60001C5.99998 9.28175 5.87355 8.97653 5.6485 8.75148C5.42346 8.52644 5.11824 8.40001 4.79998 8.40001C4.48172 8.40001 4.17649 8.52644 3.95145 8.75148C3.7264 8.97653 3.59998 9.28175 3.59998 9.60001C3.59971 11.6202 4.32742 13.5729 5.64976 15.1002C6.9721 16.6275 8.80052 17.6272 10.8 17.916V20.4H7.19998C6.88172 20.4 6.57649 20.5264 6.35145 20.7515C6.1264 20.9765 5.99998 21.2818 5.99998 21.6C5.99998 21.9183 6.1264 22.2235 6.35145 22.4485C6.57649 22.6736 6.88172 22.8 7.19998 22.8H16.8C17.1182 22.8 17.4235 22.6736 17.6485 22.4485C17.8735 22.2235 18 21.9183 18 21.6C18 21.2818 17.8735 20.9765 17.6485 20.7515C17.4235 20.5264 17.1182 20.4 16.8 20.4H13.2V17.916Z" fill="#9CA6AE"/>
</svg>
