<svg width="26" height="26" viewBox="0 0 26 26" fill="none" xmlns="http://www.w3.org/2000/svg">
<path d="M2.60007 3.90001C2.60007 3.55523 2.73704 3.22457 2.98083 2.98077C3.22463 2.73697 3.55529 2.60001 3.90007 2.60001H6.69897C7.00669 2.60015 7.30438 2.70944 7.53909 2.90845C7.7738 3.10745 7.93031 3.38326 7.98077 3.68681L8.94277 9.45231C8.98874 9.72689 8.94534 10.009 8.81897 10.2571C8.69259 10.5051 8.48992 10.7061 8.24077 10.8303L6.22837 11.8352C6.95001 13.6236 8.02476 15.2481 9.38838 16.6117C10.752 17.9753 12.3765 19.0501 14.1649 19.7717L15.1711 17.7593C15.2953 17.5104 15.496 17.3079 15.7438 17.1815C15.9916 17.0552 16.2734 17.0116 16.5478 17.0573L22.3133 18.0193C22.6168 18.0698 22.8926 18.2263 23.0916 18.461C23.2906 18.6957 23.3999 18.9934 23.4001 19.3011V22.1C23.4001 22.4448 23.2631 22.7755 23.0193 23.0193C22.7755 23.2631 22.4449 23.4 22.1001 23.4H19.5001C10.1661 23.4 2.60007 15.834 2.60007 6.50001V3.90001Z" fill="white"/>
</svg>
