<svg width="77" height="33" viewBox="0 0 77 33" fill="none" xmlns="http://www.w3.org/2000/svg">
<g filter="url(#filter0_d_517_27)">
<path d="M60.0617 1.24759H16.5011C10.7731 1.24759 6.12954 5.8911 6.12954 11.6192C6.12954 17.3472 10.7731 21.9907 16.5011 21.9907H60.0617C65.7898 21.9907 70.4333 17.3472 70.4333 11.6192C70.4333 5.8911 65.7898 1.24759 60.0617 1.24759Z" fill="#6D2B7D"/>
<path d="M60.0612 1.40323H16.5006C10.8584 1.40323 6.28457 5.97709 6.28457 11.6192C6.28457 17.2614 10.8584 21.8352 16.5006 21.8352H60.0612C65.7033 21.8352 70.2772 17.2614 70.2772 11.6192C70.2772 5.97709 65.7033 1.40323 60.0612 1.40323Z" stroke="#EEEEEE" stroke-width="0.364326"/>
</g>
<defs>
<filter id="filter0_d_517_27" x="0.000162415" y="5.70129e-05" width="76.5605" height="32.9999" filterUnits="userSpaceOnUse" color-interpolation-filters="sRGB">
<feFlood flood-opacity="0" result="BackgroundImageFix"/>
<feColorMatrix in="SourceAlpha" type="matrix" values="0 0 0 0 0 0 0 0 0 0 0 0 0 0 0 0 0 0 127 0" result="hardAlpha"/>
<feOffset dy="4.85768"/>
<feGaussianBlur stdDeviation="3.03605"/>
<feColorMatrix type="matrix" values="0 0 0 0 0.0941176 0 0 0 0 0.317647 0 0 0 0 0.623529 0 0 0 0.02 0"/>
<feBlend mode="normal" in2="BackgroundImageFix" result="effect1_dropShadow_517_27"/>
<feBlend mode="normal" in="SourceGraphic" in2="effect1_dropShadow_517_27" result="shape"/>
</filter>
</defs>
</svg>
