<svg width="21" height="19" viewBox="0 0 21 19" fill="none" xmlns="http://www.w3.org/2000/svg">
<path d="M2.31701 2.32297C1.87189 2.76996 1.5188 3.30061 1.2779 3.88463C1.037 4.46866 0.913011 5.09461 0.913011 5.72675C0.913011 6.35889 1.037 6.98484 1.2779 7.56886C1.5188 8.15288 1.87189 8.68353 2.31701 9.13052L10.5 17.3479L18.683 9.13052C19.582 8.22778 20.087 7.00341 20.087 5.72675C20.087 4.45008 19.582 3.22571 18.683 2.32297C17.7841 1.42024 16.5648 0.913085 15.2935 0.913085C14.0222 0.913085 12.8029 1.42024 11.904 2.32297L10.5 3.73283L9.09606 2.32297C8.65094 1.87598 8.12251 1.52141 7.54093 1.27949C6.95936 1.03758 6.33603 0.913073 5.70653 0.913073C5.07704 0.913073 4.45371 1.03758 3.87213 1.27949C3.29056 1.52141 2.76213 1.87598 2.31701 2.32297V2.32297Z" stroke="#BBBBBB" stroke-width="1.81159" stroke-linecap="round" stroke-linejoin="round"/>
</svg>
