<svg width="19" height="17" viewBox="0 0 19 17" fill="none" xmlns="http://www.w3.org/2000/svg">
<path d="M9.49949 16.2913C9.29518 16.291 9.09931 16.2097 8.95484 16.0653L1.47131 8.57664C0.52915 7.63435 -9.54458e-05 6.35638 1.2911e-08 5.02387C4.72793e-05 4.36408 0.13005 3.71076 0.382584 3.10121C0.635119 2.49166 1.00524 1.93782 1.47182 1.47131C1.93839 1.0048 2.49229 0.634756 3.10187 0.382308C3.71146 0.129861 4.3648 -4.72535e-05 5.02459 1.2911e-08C6.3571 9.54717e-05 7.63499 0.529523 8.57715 1.47182L9.49949 2.39517L10.4228 1.47182C11.365 0.529523 12.6429 9.54717e-05 13.9754 1.2911e-08C15.3079 -9.54458e-05 16.5859 0.52915 17.5282 1.47131C18.4705 2.41347 18.9999 3.69136 19 5.02387C19.0001 6.35638 18.4708 7.63435 17.5287 8.57664L10.0452 16.0632C9.97366 16.1353 9.88866 16.1925 9.79503 16.2316C9.7014 16.2707 9.60097 16.291 9.49949 16.2913ZM5.02016 1.5441C4.33127 1.54419 3.65788 1.74851 3.0851 2.13125C2.51233 2.51398 2.06588 3.05794 1.8022 3.69437C1.53852 4.33079 1.46945 5.0311 1.60372 5.70678C1.73798 6.38245 2.06956 7.00315 2.55653 7.4904L9.49541 14.4323L16.4353 7.4904C17.0883 6.83697 17.455 5.95103 17.455 5.02728C17.455 4.10354 17.0883 3.2176 16.4353 2.56416C15.7722 1.92977 14.8899 1.57569 13.9722 1.57569C13.0545 1.57569 12.1722 1.92977 11.5091 2.56416L10.0462 4.03216C9.89883 4.17104 9.704 4.24839 9.50152 4.24839C9.29905 4.24839 9.10422 4.17104 8.95688 4.03216L7.48786 2.56416C7.16505 2.23969 6.7811 1.98247 6.35822 1.80737C5.93533 1.63228 5.48192 1.54279 5.02423 1.5441H5.02016Z" fill="#0F393A"/>
</svg>
