<svg width="22" height="22" viewBox="0 0 22 22" fill="none" xmlns="http://www.w3.org/2000/svg">
<path fill-rule="evenodd" clip-rule="evenodd" d="M14.489 0C15.5733 0 16.564 0.442363 17.2787 1.24562C17.957 2.00788 18.3305 3.02688 18.3305 4.11502C18.3305 6.02931 17.0961 7.45788 15.7621 8.71652C15.0753 9.36444 14.284 10.0324 13.3677 10.8058L13.3664 10.8069C12.8389 11.2521 12.2934 11.7125 11.7138 12.2148C11.5927 12.3197 11.4422 12.3722 11.2918 12.3722C11.1413 12.3722 10.9908 12.3197 10.8698 12.2148C10.2932 11.7151 9.75044 11.2569 9.22558 10.8139L9.21701 10.8067C7.78943 9.60176 6.55657 8.56119 5.69707 7.54885C4.71202 6.38853 4.25316 5.29743 4.25316 4.11497C4.25316 3.02688 4.62673 2.00784 5.30494 1.24557C6.01964 0.442363 7.01041 0 8.09468 0C9.30493 0 10.354 0.572257 11.1286 1.65485C11.1867 1.73602 11.241 1.81714 11.2918 1.89754C11.3428 1.81719 11.3971 1.73602 11.4552 1.65485C12.2297 0.572257 13.2787 0 14.489 0ZM12.5364 9.82116C13.4382 9.06002 14.2171 8.40263 14.878 7.77907C16.4353 6.30972 17.042 5.28243 17.042 4.11501C17.042 2.50386 15.9446 1.28884 14.4893 1.28884C12.5718 1.28884 11.9195 3.56429 11.9131 3.58727C11.8357 3.86644 11.5817 4.05971 11.2921 4.05971C11.0024 4.05971 10.7484 3.86644 10.671 3.58727L10.671 3.5872C10.6684 3.57831 10.4907 2.96671 10.0602 2.37668C9.53366 1.65485 8.87242 1.28884 8.09491 1.28884C6.63956 1.28884 5.54214 2.50382 5.54223 4.11501C5.54223 6.01835 7.23837 7.44995 10.0483 9.82166L10.0486 9.82184L10.0601 9.83156C10.4578 10.1673 10.8658 10.5117 11.2921 10.8772C11.7224 10.5081 12.1341 10.1607 12.5354 9.82197L12.5364 9.82116Z" fill="white"/>
<path fill-rule="evenodd" clip-rule="evenodd" d="M20.0619 12.9785C19.5273 12.9785 19.0117 13.203 18.6472 13.5942L16.7532 15.6274C16.5084 14.8404 15.7733 14.2673 14.9068 14.2673H11.93C11.5132 14.2673 11.1113 14.1157 10.7984 13.8404C9.11565 12.3595 6.58627 12.3465 4.8875 13.7994C4.53718 13.3034 3.95994 12.9786 3.30785 12.9786H0.6444C0.288534 12.9786 0 13.2671 0 13.623V21.3556C0 21.7115 0.288491 22 0.6444 22H3.30785C3.88655 22 4.4063 21.744 4.76088 21.3398L5.14248 21.447C6.44778 21.8139 7.79708 22 9.15295 22H14.9068C16.319 22 17.668 21.3254 18.5153 20.1957L21.609 16.0708L21.6092 16.0706C21.8616 15.7339 21.9951 15.3332 21.9951 14.9116C21.9951 13.8457 21.1278 12.9785 20.0619 12.9785ZM3.95252 20.0668C3.95252 20.4221 3.66347 20.7112 3.30812 20.7112H1.28902V14.2673H3.30812C3.66342 14.2673 3.95252 14.5563 3.95252 14.9117V20.0668ZM20.5787 15.2975L20.5788 15.2974C20.6626 15.1856 20.707 15.0522 20.707 14.9117C20.707 14.5563 20.4179 14.2673 20.0626 14.2673C19.8818 14.2673 19.7142 14.3402 19.5909 14.4726L16.754 17.5181C16.3895 17.9093 15.874 18.1336 15.3394 18.1336H10.3278C9.97189 18.1336 9.6834 17.8451 9.6834 17.4892C9.6834 17.1333 9.97193 16.8448 10.3278 16.8448H14.9076C15.263 16.8448 15.552 16.5557 15.552 16.2004C15.552 15.8451 15.2629 15.556 14.9076 15.556H11.9307C11.2003 15.556 10.4962 15.2903 9.94787 14.8078C8.73435 13.7399 6.90428 13.74 5.69084 14.8078L5.24178 15.203V20.0668C5.24178 20.0871 5.24105 20.1072 5.24032 20.1273C5.24022 20.13 5.24012 20.1328 5.24002 20.1355L5.49203 20.2064C6.68381 20.5413 7.9158 20.7112 9.15377 20.7112H14.9075C15.9162 20.7112 16.8798 20.2294 17.485 19.4224L20.5787 15.2975Z" fill="white"/>
</svg>
