<svg width="242" height="53" viewBox="0 0 242 53" fill="none" xmlns="http://www.w3.org/2000/svg">
<rect y="21.8509" width="4.46769" height="9.29825" rx="2.23385" fill="#6D2B7D"/>
<rect x="8.1908" y="21.8509" width="4.46769" height="9.29825" rx="2.23385" fill="#6D2B7D"/>
<rect x="16.3816" y="17.2018" width="4.46769" height="18.5965" rx="2.23385" fill="#6D2B7D"/>
<rect x="24.5723" y="12.0877" width="4.46769" height="28.8246" rx="2.23385" fill="#6D2B7D"/>
<rect x="32.7631" y="7.9035" width="4.46769" height="37.193" rx="2.23385" fill="#6D2B7D"/>
<rect x="40.9539" y="10.2281" width="4.46769" height="32.5439" rx="2.23385" fill="#6D2B7D"/>
<rect x="49.1447" y="12.0877" width="4.46769" height="28.8246" rx="2.23385" fill="#6D2B7D"/>
<rect x="57.3353" y="17.2018" width="4.46769" height="18.5965" rx="2.23385" fill="#6D2B7D"/>
<rect x="65.5261" y="13.4825" width="4.46769" height="26.0351" rx="2.23385" fill="#6D2B7D"/>
<rect x="73.7169" y="10.2281" width="4.46769" height="32.5439" rx="2.23385" fill="#6D2B7D"/>
<rect x="81.9077" y="19.5263" width="4.46769" height="13.9474" rx="2.23385" fill="#6D2B7D"/>
<rect x="90.0985" y="17.2018" width="4.46769" height="18.5965" rx="2.23385" fill="#6D2B7D"/>
<rect x="98.2892" y="5.11401" width="4.46769" height="42.7719" rx="2.23385" fill="#6D2B7D"/>
<rect x="106.48" y="7.9035" width="4.46769" height="37.193" rx="2.23385" fill="#6D2B7D"/>
<rect x="114.671" y="3.7193" width="4.46769" height="45.5614" rx="2.23385" fill="#6D2B7D"/>
<rect x="122.862" y="7.9035" width="4.46769" height="37.193" rx="2.23385" fill="#6D2B7D"/>
<rect x="131.052" y="10.2281" width="4.46769" height="32.5439" rx="2.23385" fill="#6D2B7D"/>
<rect x="139.243" width="4.46769" height="53" rx="2.23385" fill="#6D2B7D"/>
<rect x="147.434" y="5.11401" width="4.46769" height="42.7719" rx="2.23385" fill="#6D2B7D"/>
<rect x="155.625" y="12.0877" width="4.46769" height="28.8246" rx="2.23385" fill="#6D2B7D"/>
<rect x="163.815" y="18.5965" width="4.46769" height="15.807" rx="2.23385" fill="#6D2B7D"/>
<rect x="172.006" y="17.2018" width="4.46769" height="18.5965" rx="2.23385" fill="#6D2B7D"/>
<rect x="180.197" y="15.3421" width="4.46769" height="22.3158" rx="2.23385" fill="#6D2B7D"/>
<rect x="188.388" y="21.8509" width="4.46769" height="9.29825" rx="2.23385" fill="#6D2B7D"/>
<rect x="196.578" y="12.0877" width="4.46769" height="28.8246" rx="2.23385" fill="#6D2B7D"/>
<rect x="204.769" y="10.2281" width="4.46769" height="32.5439" rx="2.23385" fill="#6D2B7D"/>
<rect x="212.96" y="13.4825" width="4.46769" height="26.0351" rx="2.23385" fill="#6D2B7D"/>
<rect x="221.151" y="17.2018" width="4.46769" height="18.5965" rx="2.23385" fill="#6D2B7D"/>
<rect x="229.342" y="20.9211" width="4.46769" height="11.1579" rx="2.23385" fill="#6D2B7D"/>
<rect x="237.532" y="20.9211" width="4.46769" height="11.1579" rx="2.23385" fill="#6D2B7D"/>
</svg>
