<svg width="25" height="14" viewBox="0 0 25 14" fill="none" xmlns="http://www.w3.org/2000/svg">
<g opacity="0.4">
<path d="M16.4063 6.86977C16.4063 7.69794 15.9947 8.49219 15.2621 9.0778C14.5296 9.6634 13.536 9.99239 12.5 9.99239C11.464 9.99239 10.4704 9.6634 9.73786 9.0778C9.0053 8.49219 8.59375 7.69794 8.59375 6.86977C8.59375 6.0416 9.0053 5.24735 9.73786 4.66174C10.4704 4.07614 11.464 3.74715 12.5 3.74715C13.536 3.74715 14.5296 4.07614 15.2621 4.66174C15.9947 5.24735 16.4063 6.0416 16.4063 6.86977Z" fill="#03014C"/>
<path fill-rule="evenodd" clip-rule="evenodd" d="M0 6.86977C0 6.86977 4.6875 0 12.5 0C20.3125 0 25 6.86977 25 6.86977C25 6.86977 20.3125 13.7395 12.5 13.7395C4.6875 13.7395 0 6.86977 0 6.86977ZM12.5 11.2414C13.9504 11.2414 15.3414 10.7809 16.367 9.96101C17.3926 9.14116 17.9688 8.02921 17.9688 6.86977C17.9688 5.71033 17.3926 4.59838 16.367 3.77853C15.3414 2.95868 13.9504 2.4981 12.5 2.4981C11.0496 2.4981 9.6586 2.95868 8.63301 3.77853C7.60742 4.59838 7.03125 5.71033 7.03125 6.86977C7.03125 8.02921 7.60742 9.14116 8.63301 9.96101C9.6586 10.7809 11.0496 11.2414 12.5 11.2414Z" fill="#03014C"/>
</g>
</svg>
