<svg width="30" height="30" viewBox="0 0 30 30" fill="none" xmlns="http://www.w3.org/2000/svg">
<path opacity="0.5" d="M15 0C10.405 0 6.66667 3.54158 6.66667 7.89474C6.66667 12.2479 10.405 15.7895 15 15.7895C19.595 15.7895 23.3333 12.2479 23.3333 7.89474C23.3333 3.54158 19.595 0 15 0ZM15 12.6316C12.2433 12.6316 10 10.5063 10 7.89474C10 5.28316 12.2433 3.15789 15 3.15789C17.7567 3.15789 20 5.28316 20 7.89474C20 10.5063 17.7567 12.6316 15 12.6316ZM30 30V28.4211C30 22.3279 24.765 17.3684 18.3333 17.3684H11.6667C5.23333 17.3684 0 22.3279 0 28.4211V30H3.33333V28.4211C3.33333 24.0679 7.07167 20.5263 11.6667 20.5263H18.3333C22.9283 20.5263 26.6667 24.0679 26.6667 28.4211V30H30Z" fill="#03014C"/>
</svg>
